<?xml version="1.0" encoding="UTF-8"?>
<svg version="1.1" xmlns="http://www.w3.org/2000/svg" width="230" height="230">
<path d="M0 0 C13.8815194 11.77033274 24.22656228 27.98079182 25.90234375 46.4609375 C27.08214779 67.90808948 22.24878083 86.87934224 7.83740234 103.25341797 C3.58133847 107.94681811 -0.69263366 112.09781233 -6.09765625 115.4609375 C-5.37578125 116.0178125 -4.65390625 116.5746875 -3.91015625 117.1484375 C1.67969744 121.74453942 4.98965528 125.90332045 7.90234375 132.4609375 C8.51464844 132.1309375 9.12695312 131.8009375 9.7578125 131.4609375 C11.90234375 130.4609375 11.90234375 130.4609375 14.21484375 130.4609375 C20.54080874 132.81478494 23.9379501 136.93748391 26.77734375 142.9609375 C28.52436283 146.98718015 29.15485184 149.97598602 29.90234375 154.4609375 C-39.06765625 154.4609375 -108.03765625 154.4609375 -179.09765625 154.4609375 C-174.29765625 138.4609375 -174.29765625 138.4609375 -167.09765625 132.4609375 C-164.09765625 131.0234375 -164.09765625 131.0234375 -161.09765625 130.4609375 C-158.41015625 131.42578125 -158.41015625 131.42578125 -156.09765625 132.4609375 C-155.81792969 131.79707031 -155.53820312 131.13320312 -155.25 130.44921875 C-152.43198803 124.2423435 -150.09627111 120.79350131 -144.09765625 117.4609375 C-143.10765625 117.4609375 -142.11765625 117.4609375 -141.09765625 117.4609375 C-144.11718933 114.38057133 -147.20033422 111.46213232 -150.44873047 108.61938477 C-156.30558107 103.44655276 -161.09248577 98.23575029 -165.09765625 91.4609375 C-165.89623047 90.12675781 -165.89623047 90.12675781 -166.7109375 88.765625 C-176.03017866 71.79211877 -177.3962986 52.97400772 -172.09765625 34.4609375 C-165.14463969 12.89295279 -149.03148157 -1.66781002 -129.34765625 -11.7890625 C-89.78347293 -31.21104902 -34.58567593 -28.35373371 0 0 Z " fill="#DE202D" transform="translate(190.09765625,75.5390625)"/>
<path d="M0 0 C0.78375 0.45375 1.5675 0.9075 2.375 1.375 C2.375 2.035 2.375 2.695 2.375 3.375 C2.94307373 3.507854 3.51114746 3.64070801 4.09643555 3.77758789 C6.39904792 4.38130507 8.59313356 5.12617281 10.83203125 5.93359375 C20.27275975 9.2639991 29.11684635 12.0595357 39.11328125 13.04296875 C42.05484103 13.34240897 44.80584313 13.85914741 47.6875 14.5 C58.18041512 16.49192858 69.55711608 15.81765321 80.11328125 14.59375 C82.375 14.375 82.375 14.375 84.89453125 14.44921875 C87.61236789 14.36789765 89.27553973 13.78581307 91.75 12.6875 C96.02387191 10.8749204 100.32404614 9.40124974 104.75 8 C111.6491467 5.78589194 117.99842614 2.83046181 124.375 -0.625 C136.93921223 7.4289822 136.93921223 7.4289822 137.828125 11.3984375 C138.09251988 13.38139908 138.24192804 15.37892056 138.375 17.375 C141.3469385 16.25048273 143.70940687 15.15206209 146.375 13.375 C150.73730507 13.375 153.5492825 15.55164401 156.6640625 18.3671875 C161.3554844 23.87264608 163.20784561 30.37207364 164.375 37.375 C95.405 37.375 26.435 37.375 -44.625 37.375 C-39.825 21.375 -39.825 21.375 -32.625 15.375 C-29.5625 13.9375 -29.5625 13.9375 -26.625 13.375 C-24.25 14.25 -24.25 14.25 -22.625 15.375 C-22.625 16.035 -22.625 16.695 -22.625 17.375 C-21.305 17.375 -19.985 17.375 -18.625 17.375 C-18.5425 16.323125 -18.46 15.27125 -18.375 14.1875 C-17.34528595 8.95312025 -15.57754594 6.84192131 -11.34765625 3.6640625 C-4.63314207 -0.7988176 -4.63314207 -0.7988176 0 0 Z " fill="#7F494B" transform="translate(55.625,192.625)"/>
<path d="M0 0 C13.8815194 11.77033274 24.22656228 27.98079182 25.90234375 46.4609375 C27.08214779 67.90808948 22.24878083 86.87934224 7.83740234 103.25341797 C3.58133847 107.94681811 -0.69263366 112.09781233 -6.09765625 115.4609375 C-5.37578125 116.0178125 -4.65390625 116.5746875 -3.91015625 117.1484375 C1.43125034 121.5402607 5.64147856 125.81047041 7.90234375 132.4609375 C7.57234375 133.1209375 7.24234375 133.7809375 6.90234375 134.4609375 C5.91234375 134.4609375 4.92234375 134.4609375 3.90234375 134.4609375 C3.75539062 133.86925781 3.6084375 133.27757812 3.45703125 132.66796875 C1.14091377 124.50831349 -2.72058604 121.58341791 -10.09765625 117.4609375 C-9.72511719 117.01363281 -9.35257813 116.56632813 -8.96875 116.10546875 C-8.49566406 115.50089844 -8.02257812 114.89632812 -7.53515625 114.2734375 C-7.05949219 113.68175781 -6.58382812 113.09007812 -6.09375 112.48046875 C-4.80404334 110.4531107 -4.80404334 110.4531107 -5.8359375 108.12890625 C-6.09765625 105.4609375 -6.09765625 105.4609375 -5.01928711 103.92504883 C-3.35281429 102.19659437 -1.62912977 100.57061273 0.15234375 98.9609375 C6.90801404 93.02828954 6.90801404 93.02828954 10.33984375 84.9609375 C10.90234375 82.4609375 10.90234375 82.4609375 12.83984375 80.2109375 C15.62104791 76.50266528 16.12537412 72.95351435 16.90234375 68.4609375 C17.16724609 67.35878906 17.16724609 67.35878906 17.4375 66.234375 C19.44388717 54.26349356 19.602345 36.0411553 12.90234375 25.4609375 C11.91234375 24.8009375 10.92234375 24.1409375 9.90234375 23.4609375 C9.57234375 22.7803125 9.24234375 22.0996875 8.90234375 21.3984375 C8.00536059 19.10750759 8.00536059 19.10750759 4.90234375 18.4609375 C3.21484375 15.3984375 3.21484375 15.3984375 1.90234375 12.4609375 C0.91234375 12.4609375 -0.07765625 12.4609375 -1.09765625 12.4609375 C-2.14657863 10.82461858 -3.14672328 9.15607887 -4.09765625 7.4609375 C-4.75765625 7.1309375 -5.41765625 6.8009375 -6.09765625 6.4609375 C-6.09765625 5.8009375 -6.09765625 5.1409375 -6.09765625 4.4609375 C-8.07765625 3.4709375 -8.07765625 3.4709375 -10.09765625 2.4609375 C-10.09765625 1.8009375 -10.09765625 1.1409375 -10.09765625 0.4609375 C-11.08765625 0.4609375 -12.07765625 0.4609375 -13.09765625 0.4609375 C-13.09765625 -0.1990625 -13.09765625 -0.8590625 -13.09765625 -1.5390625 C-14.08765625 -1.5390625 -15.07765625 -1.5390625 -16.09765625 -1.5390625 C-17.08765625 -3.0240625 -17.08765625 -3.0240625 -18.09765625 -4.5390625 C-21.66535177 -5.27512749 -21.66535177 -5.27512749 -25.09765625 -5.5390625 C-25.09765625 -6.1990625 -25.09765625 -6.8590625 -25.09765625 -7.5390625 C-26.74765625 -7.5390625 -28.39765625 -7.5390625 -30.09765625 -7.5390625 C-30.09765625 -8.1990625 -30.09765625 -8.8590625 -30.09765625 -9.5390625 C-30.78730469 -9.58804688 -31.47695312 -9.63703125 -32.1875 -9.6875 C-37.71870983 -10.12756882 -42.95167721 -10.81697762 -48.3203125 -12.234375 C-50.19616025 -12.73643946 -50.19616025 -12.73643946 -52.09765625 -11.5390625 C-54.14131107 -12.21143378 -56.05956756 -13.07739601 -58.02734375 -13.9453125 C-60.50923292 -14.65709958 -61.62477331 -14.16713225 -64.09765625 -13.5390625 C-65.48032405 -13.47245198 -66.865918 -13.45366672 -68.25 -13.4765625 C-69.02666016 -13.48429687 -69.80332031 -13.49203125 -70.60351562 -13.5 C-72.22070413 -13.52597893 -73.83789164 -13.55202029 -75.45507812 -13.578125 C-79.48318778 -13.61817249 -83.16456588 -13.55610405 -87.09765625 -12.5390625 C-87.09765625 -13.1990625 -87.09765625 -13.8590625 -87.09765625 -14.5390625 C-87.98453125 -14.0440625 -88.87140625 -13.5490625 -89.78515625 -13.0390625 C-93.12735519 -11.52561392 -94.55243574 -11.45259371 -98.09765625 -11.5390625 C-100.43405801 -10.88323043 -102.76754716 -10.21691242 -105.09765625 -9.5390625 C-106.41765625 -9.5390625 -107.73765625 -9.5390625 -109.09765625 -9.5390625 C-111.12394335 -8.59346185 -113.12144639 -7.58529125 -115.09765625 -6.5390625 C-116.25265625 -6.0646875 -117.40765625 -5.5903125 -118.59765625 -5.1015625 C-122.08926874 -3.54280693 -124.97347221 -1.73263853 -128.09765625 0.4609375 C-129.06703125 1.0796875 -130.03640625 1.6984375 -131.03515625 2.3359375 C-137.19799514 6.61219306 -142.46228873 11.71067138 -147.78515625 16.9609375 C-148.34404541 17.5067749 -148.90293457 18.0526123 -149.47875977 18.61499023 C-152.85722964 21.98637842 -155.54088894 25.40120562 -158.09765625 29.4609375 C-159.11859375 30.729375 -159.11859375 30.729375 -160.16015625 32.0234375 C-163.99215005 36.72261392 -163.99215005 36.72261392 -165.09765625 42.4609375 C-165.26265625 43.2653125 -165.42765625 44.0696875 -165.59765625 44.8984375 C-166.16259903 47.79376924 -166.11330612 50.5549839 -166.0625 53.49609375 C-166.01852046 56.75686277 -166.05939643 59.34615804 -167.09765625 62.4609375 C-166.65085865 64.04191363 -166.19312932 65.62043905 -165.6875 67.18359375 C-164.95037018 70.02959828 -164.68130512 72.85314994 -164.34765625 75.7734375 C-163.39019695 82.47565262 -160.83916595 86.94017727 -157.09765625 92.4609375 C-156.40841351 93.78274183 -155.73357464 95.11266823 -155.09765625 96.4609375 C-154.10765625 96.4609375 -153.11765625 96.4609375 -152.09765625 96.4609375 C-151.68515625 97.1828125 -151.27265625 97.9046875 -150.84765625 98.6484375 C-148.81845757 101.90964966 -146.71476936 103.31921136 -143.5234375 105.34765625 C-143.05292969 105.71503906 -142.58242187 106.08242187 -142.09765625 106.4609375 C-142.09765625 107.1209375 -142.09765625 107.7809375 -142.09765625 108.4609375 C-142.75765625 108.4609375 -143.41765625 108.4609375 -144.09765625 108.4609375 C-143.43765625 109.4096875 -142.77765625 110.3584375 -142.09765625 111.3359375 C-140.09765625 114.4609375 -140.09765625 114.4609375 -140.09765625 116.4609375 C-139.43765625 116.7909375 -138.77765625 117.1209375 -138.09765625 117.4609375 C-139.38578967 118.29972205 -140.67828881 119.13180533 -141.97265625 119.9609375 C-142.69195312 120.425 -143.41125 120.8890625 -144.15234375 121.3671875 C-146.09765625 122.4609375 -146.09765625 122.4609375 -148.09765625 122.4609375 C-150.18145134 126.30794382 -151.59452249 130.36148179 -153.09765625 134.4609375 C-154.08765625 134.4609375 -155.07765625 134.4609375 -156.09765625 134.4609375 C-153.90505062 127.3771347 -151.95025702 122.62130382 -145.81640625 118.34375 C-144.09765625 117.4609375 -144.09765625 117.4609375 -141.09765625 117.4609375 C-144.11718933 114.38057133 -147.20033422 111.46213232 -150.44873047 108.61938477 C-156.30558107 103.44655276 -161.09248577 98.23575029 -165.09765625 91.4609375 C-165.89623047 90.12675781 -165.89623047 90.12675781 -166.7109375 88.765625 C-176.03017866 71.79211877 -177.3962986 52.97400772 -172.09765625 34.4609375 C-165.14463969 12.89295279 -149.03148157 -1.66781002 -129.34765625 -11.7890625 C-89.78347293 -31.21104902 -34.58567593 -28.35373371 0 0 Z " fill="#DA7775" transform="translate(190.09765625,75.5390625)"/>
<path d="M0 0 C4.54586183 1.07665149 6.77935596 3.77935596 10 7 C13.77869436 9.27914506 13.77869436 9.27914506 18 10 C18.33 9.34 18.66 8.68 19 8 C19.64066406 8.27714844 20.28132813 8.55429688 20.94140625 8.83984375 C21.80636719 9.20207031 22.67132813 9.56429687 23.5625 9.9375 C24.40941406 10.29714844 25.25632813 10.65679687 26.12890625 11.02734375 C29.04137289 12.11335522 29.04137289 12.11335522 32.3984375 12.4765625 C36.21737891 13.03159303 39.44362425 14.11044763 43.0625 15.4375 C69.39072465 24.50892356 98.91015083 21.52792812 123.75390625 9.6875 C129.46515494 6.97771479 129.46515494 6.97771479 133 7.125 C135 8 135 8 136 10 C136.721875 9.484375 137.44375 8.96875 138.1875 8.4375 C141.55016375 6.7188052 142.44194263 7.28838853 146 8 C148.78307606 6.66457328 148.78307606 6.66457328 151 5 C151.99 9.455 151.99 9.455 153 14 C153.99 11.36 154.98 8.72 156 6 C156.66 6 157.32 6 158 6 C158 6.99 158 7.98 158 9 C158.66 9 159.32 9 160 9 C160.33 8.01 160.66 7.02 161 6 C163.8125 5.75 163.8125 5.75 167 6 C170 10 170 10 173 25 C106.34 25 39.68 25 -29 25 C-24.2 9 -24.2 9 -17 3 C-13.9375 1.5625 -13.9375 1.5625 -11 1 C-8.625 1.875 -8.625 1.875 -7 3 C-7 3.66 -7 4.32 -7 5 C-5.68 5 -4.36 5 -3 5 C-3 4.01 -3 3.02 -3 2 C-2.01 1.34 -1.02 0.68 0 0 Z " fill="#D8202E" transform="translate(40,205)"/>
<path d="M0 0 C1.6050221 0.09003025 3.20902874 0.19812653 4.8125 0.3125 C6.15248047 0.39951172 6.15248047 0.39951172 7.51953125 0.48828125 C11 1 11 1 13.01939392 1.690979 C22.68678962 4.96107956 32.59468181 4.45374425 42.671875 4.43359375 C44.68288345 4.43816433 46.69389034 4.44347248 48.70489502 4.44947815 C52.90749479 4.45837864 57.10990423 4.45602241 61.3125 4.44604492 C66.6592605 4.43457903 72.00535818 4.45474627 77.35203171 4.48396206 C81.50286942 4.50244224 85.65355188 4.50200788 89.80442047 4.49632454 C91.77370379 4.49617266 93.74299855 4.50210478 95.71224213 4.51461601 C106.26812162 4.57222889 115.6995988 4.15986941 125.78057861 0.8575592 C129.30582444 -0.08146264 132.36793247 -0.14480367 136 0 C133.76657964 6.85069873 128.62234326 9.07455887 122.5234375 12.31640625 C116.36675434 15.28314632 110.02201925 17.37230555 103.48217773 19.30102539 C100.81150121 20.09171439 98.28207678 20.85344053 95.8046875 22.140625 C93.56614212 23.20659899 92.03038079 23.16654219 89.5625 23.0625 C84.54589625 22.95200212 79.65682061 23.30700385 74.6640625 23.78125 C65.29266755 24.34073627 56.32900974 23.93961729 47.0625 22.4375 C45.99362549 22.26621582 44.92475098 22.09493164 43.82348633 21.91845703 C32.18050091 19.90460041 19.38200069 16.89768378 9 11 C8.67 10.34 8.34 9.68 8 9 C5.6859378 8.26924352 3.35171131 7.59861742 1 7 C0.67 4.69 0.34 2.38 0 0 Z " fill="#CD041A" transform="translate(49,185)"/>
<path d="M0 0 C5.74875608 3.42983946 9.41922834 7.68592319 11.58203125 14.0546875 C12.55390794 23.09187851 11.3662563 30.71457198 6.45703125 38.3671875 C1.9129183 42.61494526 -3.19765677 45.1836553 -9.48046875 45.5546875 C-16.66833471 44.64194262 -20.79492743 42.2041744 -25.35546875 36.5546875 C-30.49376356 29.71923381 -30.07972913 22.37795541 -29.41796875 14.0546875 C-27.79435655 8.07051683 -24.42288233 4.52748468 -19.41796875 1.0546875 C-13.40675481 -1.79963053 -6.2790397 -2.45481035 0 0 Z " fill="#04C2E4" transform="translate(73.41796875,106.9453125)"/>
<path d="M0 0 C5.70056269 2.60597152 9.11644226 6.31882202 11.92578125 11.9375 C13.73345908 20.81155479 13.41730183 29.44118931 8.61328125 37.3125 C5.02868713 41.32125723 0.73639593 44.80791514 -4.68359375 45.68359375 C-11.19291254 45.85980142 -15.45856802 44.65885516 -20.38671875 40.3125 C-26.8914374 32.26719009 -27.18867967 23.95699843 -26.14453125 14.00390625 C-25.12227104 8.65268698 -22.39122425 4.85715798 -18.38671875 1.3125 C-13.09566666 -2.06476729 -5.87189848 -1.69141429 0 0 Z " fill="#02C4E6" transform="translate(175.38671875,106.6875)"/>
<path d="M0 0 C13.8815194 11.77033274 24.22656228 27.98079182 25.90234375 46.4609375 C27.08214779 67.90808948 22.24878083 86.87934224 7.83740234 103.25341797 C3.58133847 107.94681811 -0.69263366 112.09781233 -6.09765625 115.4609375 C-5.37578125 116.0178125 -4.65390625 116.5746875 -3.91015625 117.1484375 C1.43125034 121.5402607 5.64147856 125.81047041 7.90234375 132.4609375 C7.57234375 133.1209375 7.24234375 133.7809375 6.90234375 134.4609375 C5.91234375 134.4609375 4.92234375 134.4609375 3.90234375 134.4609375 C3.75539062 133.86925781 3.6084375 133.27757812 3.45703125 132.66796875 C1.14091377 124.50831349 -2.72058604 121.58341791 -10.09765625 117.4609375 C-9.3141991 116.28874207 -8.52062789 115.12330082 -7.72265625 113.9609375 C-7.06136719 112.98640625 -7.06136719 112.98640625 -6.38671875 111.9921875 C-5.74863281 111.23421875 -5.74863281 111.23421875 -5.09765625 110.4609375 C-4.43765625 110.4609375 -3.77765625 110.4609375 -3.09765625 110.4609375 C-2.76765625 109.4709375 -2.43765625 108.4809375 -2.09765625 107.4609375 C-0.44789139 106.12140962 1.24762811 104.83782786 2.96484375 103.5859375 C12.41853979 95.99842561 17.12614028 86.50984379 20.2109375 74.9453125 C20.90234375 72.4609375 20.90234375 72.4609375 21.90234375 71.4609375 C24.82734709 51.90398085 22.28900642 32.47058179 11.078125 15.73828125 C6.53661826 10.03521514 1.79622184 5.71373578 -4.09765625 1.4609375 C-5.68469375 0.2156438 -7.26808501 -1.03431188 -8.84765625 -2.2890625 C-14.23454421 -6.55867 -19.30795517 -9.11065868 -25.91015625 -11.0390625 C-34.45975665 -13.60643522 -34.45975665 -13.60643522 -38.22265625 -15.1640625 C-49.32643744 -19.41817214 -60.67914112 -20.04706491 -72.41015625 -19.9140625 C-73.49657913 -19.90758194 -73.49657913 -19.90758194 -74.60494995 -19.90097046 C-85.36753236 -19.8257284 -95.64886519 -19.33141183 -106.09765625 -16.5390625 C-106.74863281 -16.37277344 -107.39960937 -16.20648438 -108.0703125 -16.03515625 C-129.77215519 -10.39016827 -150.37746501 1.09079595 -162.34765625 20.5859375 C-170.46549288 34.49571374 -175.08511422 49.33956526 -171.26171875 65.375 C-170.29425702 68.77202727 -169.2091475 72.10902859 -168.09765625 75.4609375 C-167.81077195 76.8326784 -167.53709517 78.20735037 -167.28515625 79.5859375 C-164.26804089 91.45325793 -153.62644368 104.79535514 -143.2421875 111.23046875 C-142.53449219 111.63652344 -141.82679688 112.04257813 -141.09765625 112.4609375 C-140.41015625 114.5859375 -140.41015625 114.5859375 -140.09765625 116.4609375 C-139.43765625 116.7909375 -138.77765625 117.1209375 -138.09765625 117.4609375 C-139.38578967 118.29972205 -140.67828881 119.13180533 -141.97265625 119.9609375 C-142.69195312 120.425 -143.41125 120.8890625 -144.15234375 121.3671875 C-146.09765625 122.4609375 -146.09765625 122.4609375 -148.09765625 122.4609375 C-150.18145134 126.30794382 -151.59452249 130.36148179 -153.09765625 134.4609375 C-154.08765625 134.4609375 -155.07765625 134.4609375 -156.09765625 134.4609375 C-153.90505062 127.3771347 -151.95025702 122.62130382 -145.81640625 118.34375 C-144.09765625 117.4609375 -144.09765625 117.4609375 -141.09765625 117.4609375 C-144.11718933 114.38057133 -147.20033422 111.46213232 -150.44873047 108.61938477 C-156.30558107 103.44655276 -161.09248577 98.23575029 -165.09765625 91.4609375 C-165.89623047 90.12675781 -165.89623047 90.12675781 -166.7109375 88.765625 C-176.03017866 71.79211877 -177.3962986 52.97400772 -172.09765625 34.4609375 C-165.14463969 12.89295279 -149.03148157 -1.66781002 -129.34765625 -11.7890625 C-89.78347293 -31.21104902 -34.58567593 -28.35373371 0 0 Z " fill="#C5A6A5" transform="translate(190.09765625,75.5390625)"/>
<path d="M0 0 C5.42938401 1.25293477 7.66568245 4.93147255 10.5546875 9.41015625 C13.91606202 12.97020626 17.56180777 14.34660299 22.0625 16.125 C22.90852783 16.47046875 23.75455566 16.8159375 24.6262207 17.171875 C30.63428472 19.5799259 36.66299219 21.63291517 43 23 C43 23.66 43 24.32 43 25 C19.24 25 -4.52 25 -29 25 C-24.2 9 -24.2 9 -17 3 C-13.9375 1.5625 -13.9375 1.5625 -11 1 C-8.625 1.875 -8.625 1.875 -7 3 C-7 3.66 -7 4.32 -7 5 C-5.68 5 -4.36 5 -3 5 C-3 4.01 -3 3.02 -3 2 C-2.01 1.34 -1.02 0.68 0 0 Z " fill="#D81D2C" transform="translate(40,205)"/>
<path d="M0 0 C7.62506713 0.70602473 14.58381255 2.52750541 21.625 5.5625 C26.82193882 7.59470418 32.39621983 7.90305722 37.90234375 8.47265625 C40.70207993 8.77980171 43.30279465 9.31945006 46.0234375 10.0390625 C52.13676627 11.45224974 58.34098071 11.33526934 64.58178711 11.31567383 C66.66639467 11.31253181 68.74955309 11.33597727 70.83398438 11.36132812 C78.74433565 11.3977285 86.11083982 10.6452101 93.82739258 8.74291992 C97 8 97 8 100.77612305 7.46606445 C103.88326037 7.18946921 103.88326037 7.18946921 106 6 C109.74483637 5.16708543 113.52800671 4.56131758 117.3125 3.9375 C118.38113281 3.76089844 119.44976562 3.58429688 120.55078125 3.40234375 C121.76314453 3.20318359 121.76314453 3.20318359 123 3 C123 2.34 123 1.68 123 1 C127.455 0.505 127.455 0.505 132 0 C128.85874257 3.14125743 125.72771275 4.92300013 121.8125 6.875 C121.11286133 7.22578613 120.41322266 7.57657227 119.69238281 7.93798828 C113.42058911 10.9815294 107.02149654 13.09305397 100.328125 14.9921875 C97.12343672 15.851485 97.12343672 15.851485 94.82421875 17.12890625 C92.57343581 18.20369125 91.0448969 18.16715417 88.5625 18.0625 C83.54589625 17.95200212 78.65682061 18.30700385 73.6640625 18.78125 C64.29266755 19.34073627 55.32900974 18.93961729 46.0625 17.4375 C44.99362549 17.26621582 43.92475098 17.09493164 42.82348633 16.91845703 C31.18050091 14.90460041 18.38200069 11.89768378 8 6 C7.67 5.34 7.34 4.68 7 4 C4.6859378 3.26924352 2.35171131 2.59861742 0 2 C0 1.34 0 0.68 0 0 Z " fill="#AE0D17" transform="translate(50,190)"/>
<path d="M0 0 C0.7214621 -0.0014502 1.44292419 -0.00290039 2.18624878 -0.00439453 C13.11534596 -0.00196911 23.3456792 0.81688113 33.75 4.375 C33.75 4.705 33.75 5.035 33.75 5.375 C32.02054347 5.23264543 30.29144346 5.08595618 28.5625 4.9375 C27.59957031 4.85628906 26.63664062 4.77507813 25.64453125 4.69140625 C22.75 4.375 22.75 4.375 20.52001953 3.86572266 C15.09689847 2.90498995 9.53765766 3.18909323 4.04272461 3.18969727 C1.85054303 3.18753748 -0.34111221 3.16943508 -2.53320312 3.15039062 C-31.9033306 3.03036083 -57.23205118 12.71420132 -78.25 33.375 C-79.08402344 34.19226563 -79.91804688 35.00953125 -80.77734375 35.8515625 C-85.50818296 40.83788465 -88.60629865 46.0526964 -91.25 52.375 C-91.83974609 53.6434375 -91.83974609 53.6434375 -92.44140625 54.9375 C-97.57038921 67.51869863 -96.19552207 82.76404082 -93.6875 95.87890625 C-93.25 98.375 -93.25 98.375 -93.25 102.375 C-92.26 102.705 -91.27 103.035 -90.25 103.375 C-88.71484375 105.51953125 -88.71484375 105.51953125 -87.1875 108.1875 C-86.68089844 109.06019531 -86.17429687 109.93289062 -85.65234375 110.83203125 C-84.46202098 112.99052742 -83.32937344 115.15944398 -82.25 117.375 C-81.26 117.375 -80.27 117.375 -79.25 117.375 C-78.8375 118.096875 -78.425 118.81875 -78 119.5625 C-75.97080132 122.82371216 -73.86711311 124.23327386 -70.67578125 126.26171875 C-70.20527344 126.62910156 -69.73476562 126.99648437 -69.25 127.375 C-69.25 128.035 -69.25 128.695 -69.25 129.375 C-69.91 129.375 -70.57 129.375 -71.25 129.375 C-71.25 130.035 -71.25 130.695 -71.25 131.375 C-82.15855081 126.45545748 -90.72752081 113.01458977 -95.25 102.375 C-96.91426135 97.12419095 -98.08084895 91.75309484 -99.25 86.375 C-99.44207031 85.71886719 -99.63414063 85.06273437 -99.83203125 84.38671875 C-102.70987831 70.53539876 -99.31580689 56.0279378 -92.375 43.9375 C-91.36081499 42.39820398 -90.31944124 40.87643228 -89.25 39.375 C-88.72664063 38.61960938 -88.20328125 37.86421875 -87.6640625 37.0859375 C-72.39949687 16.23153093 -48.1463707 5.58284082 -23.30078125 1.2890625 C-15.53240178 0.13909942 -7.83261462 -0.01614256 0 0 Z " fill="#DB6F6E" transform="translate(117.25,54.625)"/>
<path d="M0 0 C10.59490873 5.42440861 10.59490873 5.42440861 14 10 C14.6780505 12.73259451 14.85579172 15.16390382 15 18 C17.9719385 16.87548273 20.33440687 15.77706209 23 14 C27.36230507 14 30.1742825 16.17664401 33.2890625 18.9921875 C37.7166989 24.18808957 40.44982387 31.21449434 41 38 C38.69 38 36.38 38 34 38 C32.45002536 33.53607303 30.97468108 29.09866635 29.875 24.5 C29.36800738 21.1965088 29.36800738 21.1965088 28 20 C26.00041636 19.95919217 23.99954746 19.95745644 22 20 C21.67 20.66 21.34 21.32 21 22 C20.34 22 19.68 22 19 22 C19 21.01 19 20.02 19 19 C18.34 19 17.68 19 17 19 C16.814375 19.99 16.814375 19.99 16.625 21 C15.85479462 24.69698583 14.93049337 28.34005942 14 32 C13.67 32 13.34 32 13 32 C12.01 25.565 12.01 25.565 11 19 C9.68 19.99 8.36 20.98 7 22 C6.195625 21.835 5.39125 21.67 4.5625 21.5 C1.10456776 20.82528151 -0.13306866 22.14036886 -3 24 C-3.66 23.67 -4.32 23.34 -5 23 C-4.67 22.34 -4.34 21.68 -4 21 C-9.47765011 21.47221122 -13.09583048 22.37683956 -18 25 C-18.99 25 -19.98 25 -21 25 C-19.52897012 20.58691037 -16.26044957 19.16028366 -12.375 17.125 C-6.89779525 14.13973367 -1.83811192 10.96665077 3 7 C2.67 6.01 2.34 5.02 2 4 C1.01 3.67 0.02 3.34 -1 3 C-0.67 2.01 -0.34 1.02 0 0 Z " fill="#B15F62" transform="translate(179,192)"/>
<path d="M0 0 C1.72785284 0.01508263 3.45571851 0.02876467 5.18359375 0.04101562 C9.37271844 0.07371831 13.56121373 0.12529978 17.75 0.1875 C17.75 0.8475 17.75 1.5075 17.75 2.1875 C16.83504761 2.17964478 16.83504761 2.17964478 15.90161133 2.17163086 C13.12191815 2.15076665 10.34224149 2.13780987 7.5625 2.125 C6.60279297 2.11662109 5.64308594 2.10824219 4.65429688 2.09960938 C3.72294922 2.09638672 2.79160156 2.09316406 1.83203125 2.08984375 C0.55162964 2.08198853 0.55162964 2.08198853 -0.75463867 2.07397461 C-3.34246747 2.19170677 -5.72661953 2.61642956 -8.25 3.1875 C-8.25 2.5275 -8.25 1.8675 -8.25 1.1875 C-9.5803125 1.93 -9.5803125 1.93 -10.9375 2.6875 C-14.27969894 4.20094858 -15.70477949 4.27396879 -19.25 4.1875 C-21.58640176 4.84333207 -23.91989091 5.50965008 -26.25 6.1875 C-27.57 6.1875 -28.89 6.1875 -30.25 6.1875 C-32.2762871 7.13310065 -34.27379014 8.14127125 -36.25 9.1875 C-37.9825 9.8990625 -37.9825 9.8990625 -39.75 10.625 C-43.24161249 12.18375557 -46.12581596 13.99392397 -49.25 16.1875 C-50.219375 16.80625 -51.18875 17.425 -52.1875 18.0625 C-58.35033889 22.33875556 -63.61463248 27.43723388 -68.9375 32.6875 C-69.49638916 33.2333374 -70.05527832 33.7791748 -70.63110352 34.34155273 C-74.00957339 37.71294092 -76.69323269 41.12776812 -79.25 45.1875 C-80.2709375 46.4559375 -80.2709375 46.4559375 -81.3125 47.75 C-85.1444938 52.44917642 -85.1444938 52.44917642 -86.25 58.1875 C-86.415 58.991875 -86.58 59.79625 -86.75 60.625 C-87.31494278 63.52033174 -87.26564987 66.2815464 -87.21484375 69.22265625 C-87.17086421 72.48342527 -87.21174018 75.07272054 -88.25 78.1875 C-87.77731736 79.77436316 -87.30003202 81.36003475 -86.796875 82.9375 C-85.66641884 87.58851964 -85.54731819 92.42258474 -85.25 97.1875 C-85.91 97.1875 -86.57 97.1875 -87.25 97.1875 C-91.88288717 76.14647079 -93.13916429 55.85163427 -81.203125 36.9453125 C-69.97559504 22.48064799 -54.36460257 9.17885311 -36.25 5.1875 C-34.57989204 4.52950181 -32.91343421 3.86219168 -31.25 3.1875 C-20.9044038 -0.40028642 -10.78820501 -0.1650938 0 0 Z " fill="#DE5857" transform="translate(111.25,59.8125)"/>
<path d="M0 0 C0 0.66 0 1.32 0 2 C-2.0372203 2.98838433 -4.07999607 3.96532252 -6.125 4.9375 C-7.26195312 5.48277344 -8.39890625 6.02804688 -9.5703125 6.58984375 C-12.78186661 7.9103119 -15.56709079 8.58784221 -19 9 C-19 9.66 -19 10.32 -19 11 C-29.38732948 13.93465945 -39.14845187 15.73206054 -50 16 C-51.84851563 16.07734375 -51.84851563 16.07734375 -53.734375 16.15625 C-63.04123297 16.376966 -72.17952647 15.63530426 -81.4375 14.6875 C-83.21483521 14.51105957 -83.21483521 14.51105957 -85.02807617 14.33105469 C-94.61985262 13.27498018 -103.03500117 11.30726683 -111.625 6.8125 C-112.64851563 6.28269531 -113.67203125 5.75289062 -114.7265625 5.20703125 C-115.47679687 4.80871094 -116.22703125 4.41039062 -117 4 C-116.67 2.68 -116.34 1.36 -116 0 C-115.35933594 0.27714844 -114.71867187 0.55429688 -114.05859375 0.83984375 C-112.76115234 1.38318359 -112.76115234 1.38318359 -111.4375 1.9375 C-110.59058594 2.29714844 -109.74367188 2.65679687 -108.87109375 3.02734375 C-105.95862711 4.11335522 -105.95862711 4.11335522 -102.6015625 4.4765625 C-98.78262109 5.03159303 -95.55637575 6.11044763 -91.9375 7.4375 C-65.60927535 16.50892356 -36.08984917 13.52792812 -11.24609375 1.6875 C-4.23460631 -1.63920244 -4.23460631 -1.63920244 0 0 Z " fill="#702024" transform="translate(175,213)"/>
<path d="M0 0 C6.30643378 1.8806869 12.03814363 4.8283605 17.92382812 7.72265625 C26.96090615 12.09334203 35.43464758 13.58986376 45.375 14.625 C46.62563232 14.75616211 47.87626465 14.88732422 49.16479492 15.02246094 C58.51343083 15.95315454 67.6127101 16.40259298 77 16 C78.25296875 15.95746094 79.5059375 15.91492188 80.796875 15.87109375 C90.05952363 15.41949159 98.94533665 13.89184162 108 12 C108 11.34 108 10.68 108 10 C108.88042969 9.66226563 109.76085937 9.32453125 110.66796875 8.9765625 C111.82941406 8.53054687 112.99085938 8.08453125 114.1875 7.625 C115.33605469 7.18414062 116.48460937 6.74328125 117.66796875 6.2890625 C119.69573245 5.50458182 121.72016421 4.71131791 123.73828125 3.90234375 C128.08844719 2.16678532 132.38508853 0.81439614 137 0 C129.52870162 8.46747149 120.10753558 11.90046353 109.5390625 14.921875 C106.19917954 15.79132908 106.19917954 15.79132908 104.19158936 17.05319214 C101.1831639 18.35288857 98.66801794 18.23935345 95.39550781 18.22705078 C94.74143448 18.22734283 94.08736115 18.22763489 93.41346741 18.22793579 C91.25988317 18.22654676 89.10664851 18.21100608 86.953125 18.1953125 C85.45668731 18.19158084 83.96024717 18.18873459 82.46380615 18.18673706 C78.5313641 18.1791126 74.59907053 18.15947438 70.66668701 18.1373291 C66.65150969 18.11684506 62.6363083 18.10772988 58.62109375 18.09765625 C50.74732781 18.0762273 42.87368239 18.04210576 35 18 C35 17.34 35 16.68 35 16 C34.42636719 15.9484375 33.85273437 15.896875 33.26171875 15.84375 C26.48270119 14.93850942 20.42131254 12.82036637 14.125 10.25 C13.30475342 9.92708984 12.48450684 9.60417969 11.6394043 9.27148438 C6.3010876 7.01685959 3.34824009 4.74446976 0 0 Z " fill="#A21017" transform="translate(48,212)"/>
<path d="M0 0 C8.85333754 1.73146454 17.61810847 3.79327214 26.26953125 6.3515625 C36.17936148 8.70496996 46.46813816 8.29210532 56.58544922 8.35009766 C58.67377972 8.36653105 60.76205701 8.39365029 62.85009766 8.43212891 C75.879636 8.67000744 87.45572029 7.77135997 99.98925781 4.08056641 C103.08120264 3.1768372 105.75145806 2.7421663 109 3 C109 2.34 109 1.68 109 1 C110.65 1 112.3 1 114 1 C111.15691366 3.32902427 108.65184629 4.64311497 105.15625 5.75390625 C104.23972656 6.05103516 103.32320313 6.34816406 102.37890625 6.65429688 C101.42886719 6.95400391 100.47882813 7.25371094 99.5 7.5625 C97.61371005 8.16524258 95.72825815 8.77061565 93.84375 9.37890625 C93.01037109 9.6426001 92.17699219 9.90629395 91.31835938 10.17797852 C88.98468517 10.9511143 88.98468517 10.9511143 86.82983398 12.09130859 C84.570754 13.21316259 83.07129008 13.16826687 80.5625 13.0625 C75.54589625 12.95200212 70.65682061 13.30700385 65.6640625 13.78125 C56.29286643 14.34072439 47.32877552 13.94031926 38.0625 12.4375 C36.99362549 12.26549072 35.92475098 12.09348145 34.82348633 11.91625977 C8.07119518 7.27513209 8.07119518 7.27513209 0 0 Z " fill="#8A1417" transform="translate(58,195)"/>
<path d="M0 0 C0.7214621 -0.0014502 1.44292419 -0.00290039 2.18624878 -0.00439453 C13.11534596 -0.00196911 23.3456792 0.81688113 33.75 4.375 C33.75 4.705 33.75 5.035 33.75 5.375 C32.02054347 5.23264543 30.29144346 5.08595618 28.5625 4.9375 C27.59957031 4.85628906 26.63664062 4.77507813 25.64453125 4.69140625 C22.75 4.375 22.75 4.375 20.52001953 3.86572266 C15.09689847 2.90498995 9.53765766 3.18909323 4.04272461 3.18969727 C1.85054303 3.18753748 -0.34111221 3.16943508 -2.53320312 3.15039062 C-14.37923114 3.10138748 -25.98611397 3.84790853 -37.25 7.8125 C-39.044375 8.42931641 -39.044375 8.42931641 -40.875 9.05859375 C-44.11576463 10.32264199 -47.14747026 11.80846248 -50.25 13.375 C-52.58010909 14.05284992 -54.91359824 14.71916793 -57.25 15.375 C-62.54892071 17.29357474 -65.36318197 19.37141062 -69.25 23.375 C-71.58136216 25.62862706 -73.94565055 27.84624543 -76.3125 30.0625 C-77.22999023 30.93358398 -77.22999023 30.93358398 -78.16601562 31.82226562 C-78.76220703 32.37978516 -79.35839844 32.93730469 -79.97265625 33.51171875 C-80.50640869 34.01405029 -81.04016113 34.51638184 -81.59008789 35.03393555 C-83.37628844 36.47703006 -85.16689804 37.42226345 -87.25 38.375 C-82.57286137 25.05432577 -65.62402916 16.05960903 -53.50073242 10.07568359 C-36.67182007 2.24950274 -18.38229222 -0.03788482 0 0 Z " fill="#D98685" transform="translate(117.25,54.625)"/>
<path d="M0 0 C0.58265625 0.22558594 1.1653125 0.45117188 1.765625 0.68359375 C1.765625 2.00359375 1.765625 3.32359375 1.765625 4.68359375 C4.7375635 3.55907648 7.10003187 2.46065584 9.765625 0.68359375 C14.12793007 0.68359375 16.9399075 2.86023776 20.0546875 5.67578125 C24.4823239 10.87168332 27.21544887 17.89808809 27.765625 24.68359375 C25.455625 24.68359375 23.145625 24.68359375 20.765625 24.68359375 C19.21565036 20.21966678 17.74030608 15.7822601 16.640625 11.18359375 C16.13363238 7.88010255 16.13363238 7.88010255 14.765625 6.68359375 C12.76604136 6.64278592 10.76517246 6.64105019 8.765625 6.68359375 C8.435625 7.34359375 8.105625 8.00359375 7.765625 8.68359375 C7.105625 8.68359375 6.445625 8.68359375 5.765625 8.68359375 C5.765625 7.69359375 5.765625 6.70359375 5.765625 5.68359375 C5.105625 5.68359375 4.445625 5.68359375 3.765625 5.68359375 C3.641875 6.34359375 3.518125 7.00359375 3.390625 7.68359375 C2.62041962 11.38057958 1.69611837 15.02365317 0.765625 18.68359375 C0.435625 18.68359375 0.105625 18.68359375 -0.234375 18.68359375 C-0.894375 14.39359375 -1.554375 10.10359375 -2.234375 5.68359375 C-3.554375 6.67359375 -4.874375 7.66359375 -6.234375 8.68359375 C-8.234375 7.68359375 -8.234375 7.68359375 -9.234375 5.68359375 C-8.16544282 4.64769037 -7.07859012 3.63025433 -5.984375 2.62109375 C-5.38109375 2.05261719 -4.7778125 1.48414063 -4.15625 0.8984375 C-2.234375 -0.31640625 -2.234375 -0.31640625 0 0 Z " fill="#DA4A4A" transform="translate(192.234375,205.31640625)"/>
<path d="M0 0 C1.0859375 1.76953125 1.0859375 1.76953125 2 4 C1.54625 5.216875 1.0925 6.43375 0.625 7.6875 C-3.79418732 19.73622597 -0.88178494 32.29375444 3 44 C3.2868843 45.3717409 3.56056108 46.74641287 3.8125 48.125 C6.82961536 59.99232043 17.47121257 73.33441764 27.85546875 79.76953125 C28.91701172 80.37861328 28.91701172 80.37861328 30 81 C30.6875 83.125 30.6875 83.125 31 85 C31.99 85.495 31.99 85.495 33 86 C31.71186658 86.83878455 30.41936744 87.67086783 29.125 88.5 C28.04605469 89.19609375 28.04605469 89.19609375 26.9453125 89.90625 C25 91 25 91 23 91 C20.91620491 94.84700632 19.50313376 98.90054429 18 103 C17.01 103 16.02 103 15 103 C17.19260563 95.9161972 19.14739923 91.16036632 25.28125 86.8828125 C27 86 27 86 30 86 C26.98046692 82.91963383 23.89732203 80.00119482 20.64892578 77.15844727 C14.79207518 71.98561526 10.00517048 66.77481279 6 60 C5.46761719 59.11054688 4.93523438 58.22109375 4.38671875 57.3046875 C-5.05988389 40.09921271 -5.94549449 21.78262934 -1 3 C-0.67 2.01 -0.34 1.02 0 0 Z " fill="#C1A4A3" transform="translate(19,107)"/>
<path d="M0 0 C0.33 0.66 0.66 1.32 1 2 C0.505 2.598125 0.01 3.19625 -0.5 3.8125 C-2.28276418 5.97029994 -2.28276418 5.97029994 -2 9 C-1.34773438 9.31453125 -0.69546875 9.6290625 -0.0234375 9.953125 C10.133829 14.92688971 10.133829 14.92688971 14 18 C14.33 19.32 14.66 20.64 15 22 C11.37 21.01 7.74 20.02 4 19 C4.33 20.32 4.66 21.64 5 23 C5.66 23.33 6.32 23.66 7 24 C3.12208721 23.43818225 0.59084674 22.34625496 -2.625 20.125 C-3.38039063 19.61195313 -4.13578125 19.09890625 -4.9140625 18.5703125 C-7 17 -7 17 -8.63671875 15.28515625 C-9.31154297 14.64900391 -9.31154297 14.64900391 -10 14 C-12.16299211 14.22757731 -12.16299211 14.22757731 -14 15 C-13.5802 10.10233339 -11.68608362 8.13709245 -8 5 C-5.38836404 3.23472755 -2.72277329 1.5877214 0 0 Z " fill="#A45C5F" transform="translate(52,192)"/>
<path d="M0 0 C0.66 0.33 1.32 0.66 2 1 C4.2037353 8.15533806 4.18053018 15.76742924 4.1875 23.1875 C4.18830566 24.03747559 4.18911133 24.88745117 4.18994141 25.76318359 C4.13418129 31.86581871 4.13418129 31.86581871 3 33 C2.45919972 36.25843529 2.03393882 39.52682882 1.59765625 42.80078125 C1.07153314 45.61708733 0.44144333 47.55738682 -1 50 C-1.99 50 -2.98 50 -4 50 C-4.0825 50.680625 -4.165 51.36125 -4.25 52.0625 C-5.22332528 55.8746907 -6.95807455 58.64070329 -9 62 C-9.66 62 -10.32 62 -11 62 C-11.20625 62.886875 -11.4125 63.77375 -11.625 64.6875 C-13.39679447 68.95591395 -15.33338675 70.25004006 -19 73 C-19.99 73.99 -19.99 73.99 -21 75 C-21.66 73.35 -22.32 71.7 -23 70 C-21.64455078 68.67935547 -21.64455078 68.67935547 -20.26171875 67.33203125 C-19.07004593 66.15912494 -17.87865447 64.98593272 -16.6875 63.8125 C-16.09259766 63.23435547 -15.49769531 62.65621094 -14.88476562 62.06054688 C-9.3176804 56.62158029 -9.3176804 56.62158029 -6.5625 49.5 C-6 47 -6 47 -4.0625 44.75 C-1.28129584 41.04172778 -0.77696963 37.49257685 0 33 C0.17917969 32.27296875 0.35835937 31.5459375 0.54296875 30.796875 C1.19989554 26.77670765 1.14409065 22.81630939 1.125 18.75 C1.12886719 17.94175781 1.13273437 17.13351563 1.13671875 16.30078125 C1.12790962 10.79507217 0.69101222 5.4622871 0 0 Z " fill="#DD5B5A" transform="translate(207,111)"/>
<path d="M0 0 C0.33 1.98 0.66 3.96 1 6 C0.01 6.495 0.01 6.495 -1 7 C-1.66 6.01 -2.32 5.02 -3 4 C-4.32 4 -5.64 4 -7 4 C-9.27057103 10.04057576 -10.48914188 15.56318772 -11 22 C-14.63 22 -18.26 22 -22 22 C-19.33608931 12.27672599 -16.46627519 4.79755901 -8.0625 -1.4375 C-4.98003025 -2.27817357 -2.88224457 -1.17910005 0 0 Z " fill="#BF1221" transform="translate(33,208)"/>
<path d="M0 0 C2.8125 -0.25 2.8125 -0.25 6 0 C9.3904725 3.25751279 9.91726261 7.29693356 10.6875 11.75 C10.88182617 12.79607422 10.88182617 12.79607422 11.08007812 13.86328125 C11.39639933 15.57375889 11.69952747 17.28666725 12 19 C7.71 19 3.42 19 -1 19 C-3.28571429 8.42857143 -3.28571429 8.42857143 -3 3 C-2.34 3 -1.68 3 -1 3 C-0.67 2.01 -0.34 1.02 0 0 Z " fill="#A00F15" transform="translate(201,211)"/>
<path d="M0 0 C2.09306298 0.01808939 4.18567598 0.0205101 6.27880859 0.02026367 C18.46345714 0.05188737 30.59438158 0.3744133 42.49365234 3.20581055 C43.51845703 3.43397461 44.54326172 3.66213867 45.59912109 3.8972168 C50.76814643 5.09975497 55.05791111 6.17593265 59.49365234 9.20581055 C59.49365234 9.53581055 59.49365234 9.86581055 59.49365234 10.20581055 C57.84365234 10.20581055 56.19365234 10.20581055 54.49365234 10.20581055 C54.49365234 9.54581055 54.49365234 8.88581055 54.49365234 8.20581055 C53.80400391 8.15682617 53.11435547 8.1078418 52.40380859 8.05737305 C46.87259876 7.61730423 41.63963138 6.92789543 36.27099609 5.51049805 C34.39514834 5.00843359 34.39514834 5.00843359 32.49365234 6.20581055 C30.57331126 5.45128355 28.653173 4.69623335 26.73440552 3.93771362 C23.13796346 2.76299834 19.68326095 2.75737371 15.92724609 2.7722168 C15.13069107 2.76697495 14.33413605 2.76173309 13.51344299 2.7563324 C11.83522701 2.74994667 10.15696606 2.75120417 8.47875977 2.75976562 C5.96138844 2.76820913 3.44634336 2.73957631 0.92919922 2.70776367 C-9.95490337 2.66101744 -20.87214496 3.31926253 -30.77416992 8.36035156 C-32.50634766 9.20581055 -32.50634766 9.20581055 -34.75634766 8.83081055 C-35.33384766 8.62456055 -35.91134766 8.41831055 -36.50634766 8.20581055 C-34.17560902 7.24073908 -31.84206014 6.28371033 -29.50634766 5.33081055 C-28.85794922 5.06139648 -28.20955078 4.79198242 -27.54150391 4.5144043 C-18.20679062 0.72506524 -10.0268844 -0.08925666 0 0 Z " fill="#DD5F5E" transform="translate(105.50634765625,57.794189453125)"/>
<path d="M0 0 C0.33 0 0.66 0 1 0 C1.01981934 0.56807373 1.03963867 1.13614746 1.06005859 1.72143555 C1.42685273 11.74545321 1.79919658 21.61894179 3.59765625 31.50390625 C4 34 4 34 4 38 C4.99 38.33 5.98 38.66 7 39 C8.53515625 41.14453125 8.53515625 41.14453125 10.0625 43.8125 C10.56910156 44.68519531 11.07570313 45.55789062 11.59765625 46.45703125 C12.78797902 48.61552742 13.92062656 50.78444398 15 53 C15.99 53 16.98 53 18 53 C18.4125 53.721875 18.825 54.44375 19.25 55.1875 C21.27919868 58.44871216 23.38288689 59.85827386 26.57421875 61.88671875 C27.04472656 62.25410156 27.51523437 62.62148437 28 63 C28 63.66 28 64.32 28 65 C27.34 65 26.68 65 26 65 C26 65.66 26 66.32 26 67 C14.86703266 61.97925002 6.93822168 48.63616978 2 38 C-1.21233266 29.26245516 -1.08692446 19.68708382 -1.125 10.5 C-1.12967285 9.69771973 -1.1343457 8.89543945 -1.13916016 8.06884766 C-1.12300286 2.24600571 -1.12300286 2.24600571 0 0 Z " fill="#DA7574" transform="translate(20,119)"/>
<path d="M0 0 C-0.58007812 0.31453125 -1.16015625 0.6290625 -1.7578125 0.953125 C-6.3197409 3.4523993 -10.71200888 6.04605056 -15 9 C-15.87011719 9.52722656 -16.74023438 10.05445312 -17.63671875 10.59765625 C-22.15074842 13.60677777 -25.82435478 17.53476473 -29.625 21.375 C-30.37523438 22.1175 -31.12546875 22.86 -31.8984375 23.625 C-35.80336141 27.54377116 -39.05061192 31.33130038 -42 36 C-44.75 38.375 -44.75 38.375 -47 40 C-45.36038774 29.11373721 -35.50974618 19.93973584 -27.48046875 13.03125 C-26 12 -26 12 -24 12 C-24 11.34 -24 10.68 -24 10 C-23.195625 9.608125 -22.39125 9.21625 -21.5625 8.8125 C-16.31108565 6.14072779 -11.09277285 3.3951819 -6.1875 0.125 C-3.54353096 -1.2347555 -2.74572053 -0.84040922 0 0 Z M-48 40 C-47.34 40.66 -46.68 41.32 -46 42 C-46.99 42.495 -46.99 42.495 -48 43 C-48 42.01 -48 41.02 -48 40 Z " fill="#DF4848" transform="translate(74,69)"/>
<path d="M0 0 C2.4375 0.1875 2.4375 0.1875 5 1 C7.5419115 4.52420951 7.20304869 8.03537049 7.125 12.25 C7.10695313 13.51328125 7.08890625 14.7765625 7.0703125 16.078125 C7.04710937 17.04234375 7.02390625 18.0065625 7 19 C3.37 19 -0.26 19 -4 19 C-4.31617255 12.36037635 -3.64188422 7.13245664 -1 1 C-0.67 0.67 -0.34 0.34 0 0 Z " fill="#720F12" transform="translate(26,211)"/>
<path d="M0 0 C0.75087891 -0.00708984 1.50175781 -0.01417969 2.27539062 -0.02148438 C6.85537941 0.03088137 9.82284384 0.54744915 13.5625 3.4375 C15.6875 5.8125 15.6875 5.8125 17.5625 8.4375 C18.14 9.241875 18.7175 10.04625 19.3125 10.875 C20.7970766 13.91838203 20.79584672 16.09286372 20.5625 19.4375 C20.315 18.90125 20.0675 18.365 19.8125 17.8125 C16.34094187 11.21653955 12.8237281 6.85790937 5.5625 4.4375 C0.02203648 3.94981129 -4.83644848 3.69415465 -9.9375 6.0625 C-15.32293174 11.17866015 -17.06564923 15.64826087 -17.6875 22.8125 C-17.76484375 23.54855469 -17.8421875 24.28460938 -17.921875 25.04296875 C-18.10854528 26.83967018 -18.27511464 28.63844113 -18.4375 30.4375 C-18.7675 30.4375 -19.0975 30.4375 -19.4375 30.4375 C-20.04799193 12.59756918 -20.04799193 12.59756918 -15.0625 6.5625 C-14.19625 5.86125 -13.33 5.16 -12.4375 4.4375 C-11.89738281 3.74269531 -11.35726562 3.04789062 -10.80078125 2.33203125 C-7.40246586 -0.39223811 -4.16175456 -0.11017454 0 0 Z " fill="#B24E57" transform="translate(167.4375,102.5625)"/>
<path d="M0 0 C5.72570407 3.41608611 9.47350191 7.68365702 11.58203125 14.0546875 C11.77734375 17.16796875 11.77734375 17.16796875 11.70703125 20.3671875 C11.68898437 21.43582031 11.6709375 22.50445312 11.65234375 23.60546875 C11.62914062 24.41371094 11.6059375 25.22195312 11.58203125 26.0546875 C11.25203125 26.0546875 10.92203125 26.0546875 10.58203125 26.0546875 C10.54335937 25.0028125 10.54335937 25.0028125 10.50390625 23.9296875 C10.03958069 16.16278724 8.79483409 10.35432285 3.26953125 4.6796875 C-1.98698494 1.50132888 -7.32256151 0.38973398 -13.41796875 1.0546875 C-16.57066164 2.48788436 -16.57066164 2.48788436 -19.41796875 5.0546875 C-20.05476563 5.498125 -20.6915625 5.9415625 -21.34765625 6.3984375 C-24.43362659 9.02585 -26.18234905 11.26020786 -26.72314453 15.37890625 C-27.02707014 21.27876691 -26.8009165 27.16318367 -26.41796875 33.0546875 C-28.41796875 32.0546875 -28.41796875 32.0546875 -29.0234375 30.4140625 C-30.28920403 22.844528 -30.77451134 14.41225954 -26.6875 7.66796875 C-20.2822877 -0.47157795 -9.88359099 -3.86402103 0 0 Z " fill="#349EB2" transform="translate(73.41796875,106.9453125)"/>
<path d="M0 0 C1.32 0.66 2.64 1.32 4 2 C2.35 3.65 0.7 5.3 -1 7 C-0.34 7.33 0.32 7.66 1 8 C0.1875 9.9375 0.1875 9.9375 -1 12 C-4 13 -4 13 -6.125 12.3125 C-10.05271158 11.88557483 -12.4466453 13.34430096 -15.9140625 15.08984375 C-18 16 -18 16 -21 16 C-19.53187138 11.52570325 -16.11323426 10.06151379 -12.1875 8 C-7.77769937 5.64073362 -3.83071712 3.26887861 0 0 Z " fill="#8E5E60" transform="translate(179,201)"/>
<path d="M0 0 C-1.33333333 0.66666667 -2.66666667 1.33333333 -4 2 C-4.61488281 2.35191406 -5.22976562 2.70382813 -5.86328125 3.06640625 C-8.28804189 4.12585377 -9.80811219 4.17335109 -12.4375 4.0625 C-16.4603189 3.97389165 -20.36606772 4.148677 -24.375 4.5 C-36.80522049 5.48514568 -47.82638554 4.42318392 -60 2 C-60 1.67 -60 1.34 -60 1 C-58.86159668 1.00523682 -57.72319336 1.01047363 -56.55029297 1.01586914 C-52.25993663 1.0341952 -47.96958362 1.04553115 -43.67919922 1.05493164 C-41.83479223 1.05990958 -39.99038907 1.06669434 -38.14599609 1.07543945 C-28.36094923 1.12061756 -18.66829391 1.08055056 -8.91455078 0.21655273 C-5.93205153 -0.00504861 -2.98955825 -0.03537115 0 0 Z " fill="#711C1F" transform="translate(151,204)"/>
<path d="M0 0 C6.30643378 1.8806869 12.03814363 4.8283605 17.92382812 7.72265625 C23.80034786 10.56477194 29.40511745 12.9684674 36 13.4375 C40.10637291 13.87059402 43.28775871 15.22121772 47 17 C47 17.33 47 17.66 47 18 C43.04 18 39.08 18 35 18 C35 17.34 35 16.68 35 16 C34.42636719 15.9484375 33.85273437 15.896875 33.26171875 15.84375 C26.48270119 14.93850942 20.42131254 12.82036637 14.125 10.25 C13.30475342 9.92708984 12.48450684 9.60417969 11.6394043 9.27148438 C6.3010876 7.01685959 3.34824009 4.74446976 0 0 Z " fill="#B80D1A" transform="translate(48,212)"/>
<path d="M0 0 C1.2890625 -0.00773437 2.578125 -0.01546875 3.90625 -0.0234375 C7.62451521 0.38880495 9.58070318 1.07324674 12.5 3.375 C12.5 4.035 12.5 4.695 12.5 5.375 C13.263125 5.375 14.02625 5.375 14.8125 5.375 C17.5 6.375 17.5 6.375 18.53515625 8.08203125 C20.07072473 11.93166572 20.82432194 14.33853928 19.5 18.375 C19.15388672 17.57835937 19.15388672 17.57835937 18.80078125 16.765625 C16.00661373 10.71343607 12.76743589 6.9975441 6.5 4.375 C-0.93726161 3.46127929 -7.31223234 3.97216532 -13.5 8.375 C-15.92072212 10.45636655 -15.92072212 10.45636655 -17.5 12.375 C-17.17 10.725 -16.84 9.075 -16.5 7.375 C-15.84 7.375 -15.18 7.375 -14.5 7.375 C-14.273125 6.776875 -14.04625 6.17875 -13.8125 5.5625 C-10.59887194 0.20645323 -5.81334691 -0.03488008 0 0 Z " fill="#B05059" transform="translate(64.5,102.625)"/>
<path d="M0 0 C4.47667325 1.03307844 6.39746095 3.33716727 9 7 C6.92446352 7.5534764 5.15634036 8 3 8 C1.63537097 11.00218387 0.95487112 13.38037198 0.5625 16.6875 C0.376875 17.780625 0.19125 18.87375 0 20 C-0.99 20.66 -1.98 21.32 -3 22 C-3.1946838 19.22949974 -3.38102792 16.45886998 -3.5625 13.6875 C-3.61857422 12.90181641 -3.67464844 12.11613281 -3.73242188 11.30664062 C-3.78076172 10.54931641 -3.82910156 9.79199219 -3.87890625 9.01171875 C-3.9260376 8.31522217 -3.97316895 7.61872559 -4.02172852 6.90112305 C-4 5 -4 5 -3 2 C-2.01 1.34 -1.02 0.68 0 0 Z " fill="#D33F43" transform="translate(40,205)"/>
<path d="M0 0 C3.73487777 0.4979837 5.81237635 0.87491756 9 3 C11.33100458 3.74428567 13.67604523 4.38871118 16.0390625 5.0234375 C17.00972656 5.50683594 17.00972656 5.50683594 18 6 C18.33 7.32 18.66 8.64 19 10 C15.37 9.01 11.74 8.02 8 7 C8.33 8.32 8.66 9.64 9 11 C9.66 11.33 10.32 11.66 11 12 C7.04173281 11.43453326 4.240291 10.36453668 1 8 C-0.69057529 5.61782573 -1.10750048 4.64500286 -0.625 1.75 C-0.41875 1.1725 -0.2125 0.595 0 0 Z " fill="#966567" transform="translate(48,204)"/>
<path d="M0 0 C2.75 -0.3125 2.75 -0.3125 6 0 C8.25 2.4375 8.25 2.4375 10 5 C10.66 5.33 11.32 5.66 12 6 C12 7.32 12 8.64 12 10 C12.59425781 10.26167969 13.18851563 10.52335937 13.80078125 10.79296875 C18.19115693 13.20260656 21.45153897 17.15873799 22.875 21.9375 C22.91625 22.618125 22.9575 23.29875 23 24 C22.01 23.67 21.02 23.34 20 23 C19.33333333 21.66666667 18.66666667 20.33333333 18 19 C17.01 18.67 16.02 18.34 15 18 C13.3125 14.9375 13.3125 14.9375 12 12 C11.01 12 10.02 12 9 12 C7.95107762 10.36368108 6.95093297 8.69514137 6 7 C5.34 6.67 4.68 6.34 4 6 C4 5.34 4 4.68 4 4 C2.68 3.34 1.36 2.68 0 2 C0 1.34 0 0.68 0 0 Z " fill="#DD6362" transform="translate(180,76)"/>
<path d="M0 0 C2.0625 0.4375 2.0625 0.4375 4 1 C1.36860721 3.05043594 -1.30678408 5.03169603 -4 7 C-5.03125 7.78375 -6.0625 8.5675 -7.125 9.375 C-12.41971385 12.37575118 -19.13829371 11.29267882 -25 11 C-18.30550342 6.53700228 -10.29928572 3.95040927 -2.64453125 1.578125 C-0.98307463 1.1272668 -0.98307463 1.1272668 0 0 Z " fill="#B1121D" transform="translate(181,212)"/>
<path d="M0 0 C3.31258663 0.283936 4.91390671 0.93280524 7.5625 3 C11.87484166 8.30749743 14.2996534 14.17162066 15 21 C13.35 21 11.7 21 10 21 C9.53753292 19.66809481 9.08030845 18.3343693 8.625 17 C8.34527344 16.18402344 8.06554687 15.36804688 7.77734375 14.52734375 C7.06224723 12.2023817 6.61295358 9.95293507 6.1875 7.5625 C5.5996875 5.7990625 5.5996875 5.7990625 5 4 C2.00571856 2.38852558 2.00571856 2.38852558 -1 2 C-0.67 1.34 -0.34 0.68 0 0 Z " fill="#D22734" transform="translate(203,209)"/>
<path d="M0 0 C0.69895386 0.0028299 1.39790771 0.00565979 2.11804199 0.00857544 C4.31846316 0.0196398 6.51845493 0.04471644 8.71875 0.0703125 C10.22395239 0.08036015 11.72916126 0.08948285 13.234375 0.09765625 C16.89596938 0.11953357 20.55731768 0.15396554 24.21875 0.1953125 C24.21875 0.5253125 24.21875 0.8553125 24.21875 1.1953125 C22.88251587 1.25477051 22.88251587 1.25477051 21.51928711 1.31542969 C18.13559519 1.47394104 14.75328864 1.64734479 11.37084961 1.83007812 C9.92159305 1.90548867 8.47203563 1.97537065 7.0222168 2.0390625 C-3.79825785 2.51980556 -15.22244449 3.37418196 -25.05883789 8.34667969 C-26.78125 9.1953125 -26.78125 9.1953125 -29.03125 8.8203125 C-29.60875 8.6140625 -30.18625 8.4078125 -30.78125 8.1953125 C-28.45051137 7.23024103 -26.11696249 6.27321228 -23.78125 5.3203125 C-23.13285156 5.05089844 -22.48445313 4.78148437 -21.81640625 4.50390625 C-21.16542969 4.23964844 -20.51445313 3.97539063 -19.84375 3.703125 C-19.25722656 3.46223145 -18.67070313 3.22133789 -18.06640625 2.97314453 C-11.89255881 0.87166185 -6.53237024 -0.05268041 0 0 Z " fill="#DC6A68" transform="translate(99.78125,57.8046875)"/>
<path d="M0 0 C-2.3150939 2.3150939 -3.75265814 2.64760994 -6.875 3.5 C-10.52246909 4.49617027 -10.52246909 4.49617027 -13.9296875 6.0859375 C-16.77135993 7.34056268 -19.16106795 7.1921507 -22.25 7.125 C-23.32765625 7.10695312 -24.4053125 7.08890625 -25.515625 7.0703125 C-26.33546875 7.04710937 -27.1553125 7.02390625 -28 7 C-27.34 6.67 -26.68 6.34 -26 6 C-26 5.34 -26 4.68 -26 4 C-8.85106383 -0.76595745 -8.85106383 -0.76595745 0 0 Z " fill="#B30D19" transform="translate(166,223)"/>
<path d="M0 0 C0.33 1.98 0.66 3.96 1 6 C0.01 6.495 0.01 6.495 -1 7 C-1.99 5.35 -2.98 3.7 -4 2 C-8.06691197 2.62567876 -10.832409 4.42633231 -14 7 C-17.07664379 11.59498747 -18.66956273 16.67825091 -20 22 C-20.66 22 -21.32 22 -22 22 C-19.4295103 12.3217168 -16.40016196 4.74850726 -8.0625 -1.4375 C-4.98003025 -2.27817357 -2.88224457 -1.17910005 0 0 Z " fill="#C28787" transform="translate(33,208)"/>
<path d="M0 0 C6.36946225 2.31616809 9.77527515 6.45462995 12.625 12.5 C14.20921102 16.30730058 15.41400527 19.85606499 15.75 24 C15.09 24 14.43 24 13.75 24 C13.44707031 23.04738281 13.14414063 22.09476563 12.83203125 21.11328125 C12.40963534 19.84609351 11.98641411 18.57918066 11.5625 17.3125 C11.15644531 16.07113281 10.75039062 14.82976562 10.33203125 13.55078125 C8.63726351 9.74696922 6.92542111 7.65941518 3.75 5 C1.07209104 4.12761142 1.07209104 4.12761142 -1.25 4 C-1.930625 4.99 -1.930625 4.99 -2.625 6 C-3.16125 6.66 -3.6975 7.32 -4.25 8 C-4.91 8 -5.57 8 -6.25 8 C-5.9375 5.125 -5.9375 5.125 -5.25 2 C-2.25 0 -2.25 0 0 0 Z " fill="#C38A8A" transform="translate(204.25,206)"/>
<path d="M0 0 C0.99 0 1.98 0 3 0 C3.508783 1.55966218 4.00663469 3.12289241 4.5 4.6875 C4.7784375 5.55761719 5.056875 6.42773438 5.34375 7.32421875 C5.99850805 9.99391677 6.11831495 12.26396684 6 15 C4.02 15 2.04 15 0 15 C-0.95348275 10.23258627 -1.16407956 5.84034716 -1 1 C-0.67 0.67 -0.34 0.34 0 0 Z " fill="#430C0E" transform="translate(200,215)"/>
<path d="M0 0 C0 0.66 0 1.32 0 2 C-0.50789063 1.84144531 -1.01578125 1.68289062 -1.5390625 1.51953125 C-4.83835856 0.82301319 -8.00435638 0.7514144 -11.375 0.6875 C-12.66148438 0.65011719 -13.94796875 0.61273438 -15.2734375 0.57421875 C-20.30967318 1.14963771 -22.9236499 3.32700268 -26.76953125 6.42578125 C-28.42837727 8.54805092 -28.98141432 10.59851918 -29.6875 13.1875 C-29.93886719 14.08855469 -30.19023438 14.98960938 -30.44921875 15.91796875 C-30.63097656 16.60503906 -30.81273437 17.29210937 -31 18 C-32.18846327 14.2517697 -31.7043564 11.78169218 -30.22265625 8.1015625 C-23.92593613 -2.72155388 -11.02197041 -4.89865352 0 0 Z " fill="#CA343E" transform="translate(76,103)"/>
<path d="M0 0 C8.58454002 3.96940014 15.56603872 11.75106349 20 20 C19.71484375 22.33203125 19.71484375 22.33203125 19 24 C18.39671875 23.16855469 17.7934375 22.33710937 17.171875 21.48046875 C16.36488676 20.3825894 15.55757813 19.28494551 14.75 18.1875 C14.35425781 17.64029297 13.95851562 17.09308594 13.55078125 16.52929688 C11.7603107 14.10775883 10.16712164 12.11908838 7.703125 10.36328125 C7.14109375 9.91339844 6.5790625 9.46351562 6 9 C6 7.68 6 6.36 6 5 C5.38125 4.731875 4.7625 4.46375 4.125 4.1875 C2 3 2 3 0 0 Z " fill="#D88A89" transform="translate(186,77)"/>
<path d="M0 0 C1.67542976 0.28604898 3.34385343 0.61781233 5 1 C4.53980469 1.51046875 4.07960938 2.0209375 3.60546875 2.546875 C1.54034162 5.70234907 1.03032289 8.55833941 0.3125 12.25 C0.06113281 13.51328125 -0.19023437 14.7765625 -0.44921875 16.078125 C-0.63097656 17.04234375 -0.81273437 18.0065625 -1 19 C-1.99 19 -2.98 19 -4 19 C-4.31617255 12.36037635 -3.64188422 7.13245664 -1 1 C-0.67 0.67 -0.34 0.34 0 0 Z " fill="#8D1113" transform="translate(26,211)"/>
<path d="M0 0 C4.89630683 5.96072136 4.70381162 12.52314411 4 20 C2.96045101 23.49542673 1.61802607 26.73505454 0 30 C-0.33 30 -0.66 30 -1 30 C-1 28.35 -1 26.7 -1 25 C-0.34 25 0.32 25 1 25 C1.13605482 16.60995285 0.75475351 8.35619957 0 0 Z " fill="#32ACC2" transform="translate(184,114)"/>
<path d="M0 0 C7.0262819 5.11622469 13.0077038 9.51876781 16 18 C15.67 18.66 15.34 19.32 15 20 C14.01 20 13.02 20 12 20 C11.85304687 19.40832031 11.70609375 18.81664062 11.5546875 18.20703125 C9.23857002 10.04737599 5.37707021 7.12248041 -2 3 C-1.34 2.01 -0.68 1.02 0 0 Z " fill="#C79796" transform="translate(182,190)"/>
<path d="M0 0 C0.33 0 0.66 0 1 0 C1.125 7.75 1.125 7.75 0 10 C-0.08471364 11.81341842 -0.10721083 13.62994161 -0.09765625 15.4453125 C-0.09443359 16.52167969 -0.09121094 17.59804687 -0.08789062 18.70703125 C-0.07951172 19.83496094 -0.07113281 20.96289062 -0.0625 22.125 C-0.05798828 23.26066406 -0.05347656 24.39632812 -0.04882812 25.56640625 C-0.03701615 28.37765638 -0.02054507 31.1888023 0 34 C-4.24130318 25.66056453 -4.29002485 14.9851153 -2.328125 5.8828125 C-1.5 3.4375 -1.5 3.4375 0 0 Z " fill="#D88B8A" transform="translate(20,111)"/>
<path d="M0 0 C9.92431615 -0.32717526 19.53245161 -0.03304437 29.375 1.375 C30.27178467 1.50108643 31.16856934 1.62717285 32.0925293 1.75708008 C36.13817234 2.37654381 39.37924976 3.01620946 43 5 C26.26716189 4.26997951 26.26716189 4.26997951 19.53515625 2.4765625 C13.13871836 1.27415045 6.49093707 1.28318669 0 1 C0 0.67 0 0.34 0 0 Z " fill="#B59F9F" transform="translate(108,52)"/>
<path d="M0 0 C-0.62003906 0.28230469 -1.24007812 0.56460938 -1.87890625 0.85546875 C-10.57550327 5.17212025 -17.27528047 11.17014855 -24.44091797 17.63037109 C-26.22078121 19.1939528 -28.067739 20.62949909 -30 22 C-28.43306739 18.03227006 -25.85724066 15.84621 -22.6875 13.0625 C-19.83748351 10.54686471 -17.05303992 8.05439379 -14.3984375 5.33203125 C-12.27423182 3.26663908 -10.56488122 1.93085548 -7.9375 0.625 C-7.28652344 0.28726563 -6.63554688 -0.05046875 -5.96484375 -0.3984375 C-3.60366437 -1.12134332 -2.30473915 -0.7904896 0 0 Z " fill="#DC6967" transform="translate(65,69)"/>
<path d="M0 0 C0.66 0 1.32 0 2 0 C2 6.6 2 13.2 2 20 C1.01 20 0.02 20 -1 20 C-1.22295635 17.60472566 -1.42874063 15.20998659 -1.625 12.8125 C-1.68945312 12.13896484 -1.75390625 11.46542969 -1.8203125 10.77148438 C-2.14362111 6.62909282 -1.89095265 3.71694891 0 0 Z " fill="#BD0E1D" transform="translate(34,210)"/>
<path d="M0 0 C1.59134766 -0.02126953 1.59134766 -0.02126953 3.21484375 -0.04296875 C6.0625 0.1875 6.0625 0.1875 9.0625 2.1875 C8.216875 2.10628906 7.37125 2.02507812 6.5 1.94140625 C-1.69403924 1.45826061 -1.69403924 1.45826061 -8.5625 5.4375 C-10.42533855 7.34101188 -11.981434 9.24939716 -13.5234375 11.421875 C-13.99007812 12.00453125 -14.45671875 12.5871875 -14.9375 13.1875 C-15.5975 13.1875 -16.2575 13.1875 -16.9375 13.1875 C-15.66939061 7.26965617 -12.6526965 4.60156916 -7.9375 1.1875 C-5.2264923 -0.16800385 -3.02410831 0.01832793 0 0 Z " fill="#1BABC2" transform="translate(166.9375,105.8125)"/>
<path d="M0 0 C1.32 0.33 2.64 0.66 4 1 C5.823321 7.15370839 6.2361959 12.59646678 6 19 C5.67 19 5.34 19 5 19 C4.49564306 17.0636296 3.99666126 15.12585854 3.5 13.1875 C3.2215625 12.10855469 2.943125 11.02960938 2.65625 9.91796875 C2 7 2 7 2 4 C-1.11332248 4.66868314 -1.11332248 4.66868314 -2.1875 7.0625 C-2.455625 7.701875 -2.72375 8.34125 -3 9 C-3 7.02 -3 5.04 -3 3 C-2.34 3 -1.68 3 -1 3 C-0.67 2.01 -0.34 1.02 0 0 Z " fill="#841618" transform="translate(201,211)"/>
<path d="M0 0 C0.66 0 1.32 0 2 0 C2.33910994 2.04071515 2.67102704 4.08262621 3 6.125 C3.185625 7.26195312 3.37125 8.39890625 3.5625 9.5703125 C3.96956049 12.76137602 4.07809902 15.78817791 4 19 C2.68 19 1.36 19 0 19 C0 12.73 0 6.46 0 0 Z " fill="#BE0A1A" transform="translate(196,211)"/>
<path d="M0 0 C0.33 0.66 0.66 1.32 1 2 C1.66 2.33 2.32 2.66 3 3 C1.71186658 3.83878455 0.41936744 4.67086783 -0.875 5.5 C-1.59429687 5.9640625 -2.31359375 6.428125 -3.0546875 6.90625 C-5 8 -5 8 -7 8 C-9.08379509 11.84700632 -10.49686624 15.90054429 -12 20 C-12.99 20 -13.98 20 -15 20 C-12.80739437 12.9161972 -10.85260077 8.16036632 -4.71875 3.8828125 C-3 3 -3 3 0 3 C0 2.01 0 1.02 0 0 Z " fill="#C39B9A" transform="translate(49,190)"/>
<path d="M0 0 C0.66 0.33 1.32 0.66 2 1 C1.34 2.98 0.68 4.96 0 7 C-0.66 7 -1.32 7 -2 7 C-2.20625 7.61875 -2.4125 8.2375 -2.625 8.875 C-4.54775888 11.84653645 -6.66594527 12.13024659 -10 13 C-8.02 10.69 -6.04 8.38 -4 6 C-4.99 5.67 -5.98 5.34 -7 5 C-2.25 1.125 -2.25 1.125 0 0 Z " fill="#A56D6F" transform="translate(184,203)"/>
<path d="M0 0 C-1.39798828 0.52787109 -1.39798828 0.52787109 -2.82421875 1.06640625 C-10.75732073 4.12098014 -18.11855127 7.50779539 -25.48828125 11.77734375 C-26.73158203 12.38255859 -26.73158203 12.38255859 -28 13 C-28.66 12.67 -29.32 12.34 -30 12 C-22.84581759 6.66275281 -9.16243953 -2.84351572 0 0 Z " fill="#D79290" transform="translate(80,61)"/>
<path d="M0 0 C0.6084375 0.30292969 1.216875 0.60585937 1.84375 0.91796875 C9.99727713 4.8148751 18.35642329 7.45139206 27 10 C27 10.33 27 10.66 27 11 C19.7970542 10.6992507 14.41641091 9.19706585 8 6 C6.31579817 5.24262265 4.62836025 4.49239333 2.9375 3.75 C1.625 3.16666667 0.3125 2.58333333 -1 2 C-0.67 1.34 -0.34 0.68 0 0 Z " fill="#93292D" transform="translate(59,215)"/>
<path d="M0 0 C0.33 1.32 0.66 2.64 1 4 C-0.57826815 5.46381359 -2.16282229 6.92085163 -3.75 8.375 C-4.63171875 9.18710938 -5.5134375 9.99921875 -6.421875 10.8359375 C-8.59802521 12.6625848 -10.40820119 13.89787994 -13 15 C-12.6875 13.0625 -12.6875 13.0625 -12 11 C-11.01 10.67 -10.02 10.34 -9 10 C-8.67 9.01 -8.34 8.02 -8 7 C-6.15234375 5.17578125 -6.15234375 5.17578125 -3.9375 3.3125 C-2.83728516 2.37857422 -2.83728516 2.37857422 -1.71484375 1.42578125 C-1.14894531 0.95527344 -0.58304688 0.48476562 0 0 Z " fill="#C89E9D" transform="translate(196,176)"/>
<path d="M0 0 C1.485 0.99 1.485 0.99 3 2 C3 2.66 3 3.32 3 4 C3.99 4 4.98 4 6 4 C6.4125 4.721875 6.825 5.44375 7.25 6.1875 C9.27919868 9.44871216 11.38288689 10.85827386 14.57421875 12.88671875 C15.04472656 13.25410156 15.51523437 13.62148437 16 14 C16 14.66 16 15.32 16 16 C15.01 16.33 14.02 16.66 13 17 C8.09488382 12.31397089 3.66585701 7.72790158 0 2 C0 1.34 0 0.68 0 0 Z " fill="#DC6362" transform="translate(32,168)"/>
<path d="M0 0 C8.58 3.3 17.16 6.6 26 10 C17.24320623 12.18919844 7.62497511 6.11613701 0 2 C0 1.34 0 0.68 0 0 Z " fill="#4D1518" transform="translate(58,213)"/>
<path d="M0 0 C1.65 0 3.3 0 5 0 C1.57061871 2.97562092 -2.1841133 4.31128202 -6.4375 5.6875 C-7.09298828 5.91244141 -7.74847656 6.13738281 -8.42382812 6.36914062 C-12.05219845 7.56646644 -15.17712871 8.2725361 -19 8 C-16.59383367 5.59383367 -15.27635178 5.624067 -12 5 C-11.401875 4.67 -10.80375 4.34 -10.1875 4 C-6.87848933 2.48730941 -3.61167752 2.36116775 0 2 C0 1.34 0 0.68 0 0 Z " fill="#8B1A1F" transform="translate(167,196)"/>
<path d="M0 0 C0 2.70202608 -0.27868213 4.92813049 -0.8125 7.5625 C-0.96332031 8.34753906 -1.11414063 9.13257813 -1.26953125 9.94140625 C-2 12 -2 12 -5 14 C-5.72382467 16.05925139 -5.72382467 16.05925139 -6 18 C-6.66 18 -7.32 18 -8 18 C-7.55851518 11.08340452 -4.95199853 4.95199853 0 0 Z " fill="#DA4047" transform="translate(21,212)"/>
<path d="M0 0 C-18.23332718 9.53316091 -18.23332718 9.53316091 -23.25 8.56640625 C-23.8275 8.37949219 -24.405 8.19257813 -25 8 C-23.49759766 7.40251953 -23.49759766 7.40251953 -21.96484375 6.79296875 C-20.62237704 6.25785964 -19.27993019 5.72270072 -17.9375 5.1875 C-17.28072266 4.92646484 -16.62394531 4.66542969 -15.94726562 4.39648438 C-15.29306641 4.13544922 -14.63886719 3.87441406 -13.96484375 3.60546875 C-13.30726074 3.34427246 -12.64967773 3.08307617 -11.97216797 2.81396484 C-10.65209635 2.26913707 -9.34335108 1.69605973 -8.04736328 1.09619141 C-3.29781539 -1.0992718 -3.29781539 -1.0992718 0 0 Z " fill="#4C1417" transform="translate(174,215)"/>
<path d="M0 0 C6.9113364 0.47122748 12.72204161 3.20636006 19 6 C19 6.66 19 7.32 19 8 C15.46078236 7.56838809 12.47350318 6.85497316 9.25 5.375 C7.64125 4.694375 7.64125 4.694375 6 4 C5.01 4.495 5.01 4.495 4 5 C3.67 4.01 3.34 3.02 3 2 C2.01 1.34 1.02 0.68 0 0 Z " fill="#743638" transform="translate(53,210)"/>
<path d="M0 0 C1.55403686 2.93163286 2.69801632 5.83365224 3.6875 9 C3.95949219 9.845625 4.23148438 10.69125 4.51171875 11.5625 C5.02468085 14.1232068 4.84216387 15.55828998 4 18 C3.34 18 2.68 18 2 18 C-0.03358813 11.64647324 -1.60671734 6.57293456 0 0 Z " fill="#C79E9D" transform="translate(17,137)"/>
<path d="M0 0 C-0.1136515 2.62594784 -0.24039054 5.25011547 -0.375 7.875 C-0.4059375 8.62136719 -0.436875 9.36773437 -0.46875 10.13671875 C-0.7734375 15.7734375 -0.7734375 15.7734375 -3 18 C-3.19493195 15.72979256 -3.38070418 13.45879711 -3.5625 11.1875 C-3.66691406 9.92292969 -3.77132812 8.65835938 -3.87890625 7.35546875 C-4 4 -4 4 -3 1 C-1 0 -1 0 0 0 Z " fill="#D75A5A" transform="translate(40,206)"/>
<path d="M0 0 C0.99 0.33 1.98 0.66 3 1 C2.67 2.98 2.34 4.96 2 7 C1.34 6.67 0.68 6.34 0 6 C-1.32 6.99 -2.64 7.98 -4 9 C-6 8 -6 8 -7 6 C-5.90716423 4.96704564 -4.80029421 3.94892165 -3.6875 2.9375 C-3.07261719 2.36902344 -2.45773438 1.80054688 -1.82421875 1.21484375 C-0.92123047 0.61349609 -0.92123047 0.61349609 0 0 Z " fill="#C54D51" transform="translate(190,205)"/>
<path d="M0 0 C8.24667466 0.65973397 12.96425932 4.82650799 19 10 C17.68 10.33 16.36 10.66 15 11 C14.54625 10.2575 14.0925 9.515 13.625 8.75 C10.42237344 5.39486741 7.4671102 4.38180219 3.14453125 2.89453125 C1 2 1 2 0 0 Z " fill="#D98685" transform="translate(165,65)"/>
<path d="M0 0 C0 4.38618346 -2.73456783 6.55175811 -5.5 9.6875 C-6.02464844 10.29400391 -6.54929688 10.90050781 -7.08984375 11.52539062 C-8.38666902 13.02263435 -9.69249362 14.51207472 -11 16 C-11.66 15.67 -12.32 15.34 -13 15 C-11.38989473 10.92623969 -8.46177729 8.23492931 -5.375 5.25 C-4.859375 4.74339844 -4.34375 4.23679688 -3.8125 3.71484375 C-2.54616661 2.47196098 -1.2736856 1.23534724 0 0 Z " fill="#DD5352" transform="translate(197,168)"/>
<path d="M0 0 C6.60360813 1.53572282 8.98336573 5.21843549 12.8125 10.5 C14.23908743 13.50334196 14.22923601 15.71428382 14 19 C13.7525 18.46375 13.505 17.9275 13.25 17.375 C11.70039828 14.43075672 9.87070582 11.75103798 8 9 C7.34 7.9275 6.68 6.855 6 5.75 C4.07545101 3.10374515 3.0234528 2.07980457 0 1 C0 0.67 0 0.34 0 0 Z " fill="#B74751" transform="translate(174,103)"/>
<path d="M0 0 C0 0.66 0 1.32 0 2 C-0.53882812 1.83886719 -1.07765625 1.67773438 -1.6328125 1.51171875 C-8.26283977 0.07849503 -15.77380759 0.23280337 -22 3 C-21 0 -21 0 -19.2734375 -1.171875 C-13.19031771 -3.38771932 -5.84436238 -2.52729184 0 0 Z " fill="#906A76" transform="translate(75,106)"/>
<path d="M0 0 C3.02214861 1.51107431 4.15310978 4.22966467 6 7 C6.484375 8.9375 6.484375 8.9375 6.75 11 C6.84796875 11.680625 6.9459375 12.36125 7.046875 13.0625 C7 15 7 15 5 18 C4.16320723 15.37605694 3.33043058 12.75095616 2.5 10.125 C2.26152344 9.37863281 2.02304688 8.63226563 1.77734375 7.86328125 C0 2.2265625 0 2.2265625 0 0 Z " fill="#C99D9D" transform="translate(208,104)"/>
<path d="M0 0 C-0.33 0.66 -0.66 1.32 -1 2 C-2.66475686 2.34274406 -4.33195323 2.67364302 -6 3 C-7.155 3.515625 -8.31 4.03125 -9.5 4.5625 C-12.73439147 5.89091078 -14.58092386 6.3108251 -18 6 C-13.24756887 1.86745119 -6.31341683 -2.44390329 0 0 Z " fill="#763739" transform="translate(175,213)"/>
<path d="M0 0 C2.75 -0.3125 2.75 -0.3125 6 0 C8.25 2.4375 8.25 2.4375 10 5 C10.66 5.33 11.32 5.66 12 6 C12 6.66 12 7.32 12 8 C9.36 7.34 6.72 6.68 4 6 C4 5.34 4 4.68 4 4 C2.68 3.34 1.36 2.68 0 2 C0 1.34 0 0.68 0 0 Z " fill="#DC6C6B" transform="translate(180,76)"/>
<path d="M0 0 C0.99 0 1.98 0 3 0 C3.508783 1.55966218 4.00663469 3.12289241 4.5 4.6875 C4.7784375 5.55761719 5.056875 6.42773438 5.34375 7.32421875 C5.99850805 9.99391677 6.11831495 12.26396684 6 15 C5.34 15 4.68 15 4 15 C3.67 11.37 3.34 7.74 3 4 C2.34 4 1.68 4 1 4 C0.67 5.65 0.34 7.3 0 9 C-0.33 9 -0.66 9 -1 9 C-1.09765625 2.84765625 -1.09765625 2.84765625 -1 1 C-0.67 0.67 -0.34 0.34 0 0 Z " fill="#640E11" transform="translate(200,215)"/>
<path d="M0 0 C2.16216236 3.24324354 2.25594982 4.18055451 2.265625 7.9296875 C2.26949219 9.37021484 2.26949219 9.37021484 2.2734375 10.83984375 C2.26570312 11.84144531 2.25796875 12.84304687 2.25 13.875 C2.25773438 14.86886719 2.26546875 15.86273438 2.2734375 16.88671875 C2.27085937 17.84964844 2.26828125 18.81257813 2.265625 19.8046875 C2.26336914 20.68108887 2.26111328 21.55749023 2.25878906 22.46044922 C1.97252889 25.26957966 1.15851241 27.43735214 0 30 C-0.33 30 -0.66 30 -1 30 C-1.04254356 28.00045254 -1.04080783 25.99958364 -1 24 C-0.67 23.67 -0.34 23.34 0 23 C0.08713831 21.29227642 0.10700007 19.58101351 0.09765625 17.87109375 C0.09443359 16.83662109 0.09121094 15.80214844 0.08789062 14.73632812 C0.07951172 13.64771484 0.07113281 12.55910156 0.0625 11.4375 C0.05798828 10.34501953 0.05347656 9.25253906 0.04882812 8.12695312 C0.03699826 5.41791505 0.02051543 2.70898401 0 0 Z " fill="#DC6A69" transform="translate(210,120)"/>
<path d="M0 0 C0.33 0 0.66 0 1 0 C0.67 4.29 0.34 8.58 0 13 C-0.99 13 -1.98 13 -3 13 C-3.14285714 5.57142857 -3.14285714 5.57142857 -2 2 C-1.34 2 -0.68 2 0 2 C0 1.34 0 0.68 0 0 Z " fill="#3C0B0E" transform="translate(31,217)"/>
<path d="M0 0 C3.68226803 2.6920783 3.96586572 6.46416493 4.6875 10.6875 C4.88182617 11.7403418 4.88182617 11.7403418 5.08007812 12.81445312 C5.39721261 14.54107423 5.70001797 16.27031635 6 18 C4.68 18 3.36 18 2 18 C1.93941406 17.03578125 1.87882813 16.0715625 1.81640625 15.078125 C1.73261719 13.81484375 1.64882812 12.5515625 1.5625 11.25 C1.48128906 9.99703125 1.40007812 8.7440625 1.31640625 7.453125 C1.07484478 4.81682447 0.75716066 2.51962706 0 0 Z " fill="#B90B19" transform="translate(207,212)"/>
<path d="M0 0 C-5.11281717 3.22914769 -10.08042413 3.99636425 -16 3 C-18.3046875 1.4765625 -18.3046875 1.4765625 -20 0 C-19.19175781 0.01160156 -18.38351563 0.02320313 -17.55078125 0.03515625 C-16.48214844 0.04417969 -15.41351563 0.05320313 -14.3125 0.0625 C-12.72888672 0.07990234 -12.72888672 0.07990234 -11.11328125 0.09765625 C-8.04741622 0.09186749 -8.04741622 0.09186749 -5.29296875 -0.56640625 C-3 -1 -3 -1 0 0 Z " fill="#4191A3" transform="translate(179,149)"/>
<path d="M0 0 C2.4375 0.75 2.4375 0.75 4.4375 2.75 C2.766875 3.1521875 2.766875 3.1521875 1.0625 3.5625 C-2.78090951 4.40809019 -2.78090951 4.40809019 -4.5625 7.75 C-5.2225 7.75 -5.8825 7.75 -6.5625 7.75 C-6.25 4.875 -6.25 4.875 -5.5625 1.75 C-2.5625 -0.25 -2.5625 -0.25 0 0 Z " fill="#B18687" transform="translate(204.5625,206.25)"/>
<path d="M0 0 C2.875 0.3125 2.875 0.3125 6 1 C6.66 1.99 7.32 2.98 8 4 C6.35 4 4.7 4 3 4 C3 4.99 3 5.98 3 7 C2.34 7 1.68 7 1 7 C-1 4 -1 4 -0.625 1.8125 C-0.41875 1.214375 -0.2125 0.61625 0 0 Z " fill="#A16F71" transform="translate(48,204)"/>
<path d="M0 0 C0.33 0 0.66 0 1 0 C0.42085333 6.01326751 -0.22337945 12.00892722 -1 18 C-1.66 18 -2.32 18 -3 18 C-3.31985731 11.28299653 -2.4793824 6.24273068 0 0 Z " fill="#A10F15" transform="translate(25,212)"/>
<path d="M0 0 C0.33 1.98 0.66 3.96 1 6 C0.01 6.495 0.01 6.495 -1 7 C-4 2.25 -4 2.25 -4 0 C-5.98 0.33 -7.96 0.66 -10 1 C-7.68309104 -3.63381792 -3.88575585 -1.46795221 0 0 Z " fill="#AF8586" transform="translate(33,208)"/>
<path d="M0 0 C0.66 0.33 1.32 0.66 2 1 C-1.66666667 4.66666667 -5.33333333 8.33333333 -9 12 C-8.58424938 7.14957612 -6.58340022 5.15680495 -3 2 C-2.01 1.34 -1.02 0.68 0 0 Z " fill="#BE6A6C" transform="translate(47,195)"/>
<path d="M0 0 C0.66 0 1.32 0 2 0 C1.44813444 2.94328298 0.78463084 5.79417378 0 8.6875 C-1.20860127 13.40465271 -1.62276185 18.15546795 -2 23 C-2.33 23 -2.66 23 -3 23 C-3.2611994 15.3671732 -3.50255082 7.00510164 0 0 Z " fill="#A34E58" transform="translate(151,110)"/>
<path d="M0 0 C4.77962147 -0.19118486 8.60470084 0.01165038 13 2 C13.33 2.99 13.66 3.98 14 5 C13.01 4.690625 12.02 4.38125 11 4.0625 C7.02268878 2.91566793 3.11232621 2.43287644 -1 2 C-0.67 1.34 -0.34 0.68 0 0 Z " fill="#8E6B77" transform="translate(166,104)"/>
<path d="M0 0 C0 4.07434009 -1.76293677 7.0960044 -3.5 10.6875 C-3.83386719 11.38939453 -4.16773438 12.09128906 -4.51171875 12.81445312 C-5.33599411 14.54543137 -6.16732406 16.2730471 -7 18 C-8.21268968 15.0979565 -8.01909036 14.04912674 -6.85546875 11.0546875 C-6.30503906 10.00539063 -5.75460938 8.95609375 -5.1875 7.875 C-4.64480469 6.82054688 -4.10210938 5.76609375 -3.54296875 4.6796875 C-2 2 -2 2 0 0 Z " fill="#D88E8D" transform="translate(29,93)"/>
<path d="M0 0 C-1.4160599 0.79275148 -2.83287553 1.58415312 -4.25 2.375 C-5.43335937 3.03628906 -5.43335937 3.03628906 -6.640625 3.7109375 C-10.4842618 5.81093774 -13.64766775 7.27461129 -18 8 C-16.74704926 5.49409851 -15.75316815 5.23409562 -13.25 4.0625 C-10.75848887 2.87903221 -8.5639344 1.71259312 -6.25 0.1875 C-3.55174598 -1.23657851 -2.80785924 -0.867133 0 0 Z " fill="#DE4D4C" transform="translate(74,69)"/>
<path d="M0 0 C0.33 0.66 0.66 1.32 1 2 C-4.75 5 -4.75 5 -7 5 C-7 5.66 -7 6.32 -7 7 C-10.47325181 8.1577506 -13.36067448 8.06866652 -17 8 C-14.02711373 6.01807582 -11.23952941 4.78158245 -7.9375 3.4375 C-3.92337997 1.81869589 -3.92337997 1.81869589 0 0 Z " fill="#923236" transform="translate(173,215)"/>
<path d="M0 0 C0.66 0.33 1.32 0.66 2 1 C-0.82522609 5.67248931 -3.67760044 8.65996398 -8 12 C-7.41463247 8.33939179 -5.916761 6.45464836 -3.4375 3.75 C-2.79683594 3.04359375 -2.15617188 2.3371875 -1.49609375 1.609375 C-0.75552734 0.81273437 -0.75552734 0.81273437 0 0 Z " fill="#DB6B6A" transform="translate(194,174)"/>
<path d="M0 0 C1.29315061 0.95632999 2.58446853 1.91513851 3.875 2.875 C4.59429687 3.40867188 5.31359375 3.94234375 6.0546875 4.4921875 C8 6 8 6 10 8 C9.34 8.66 8.68 9.32 8 10 C7.278125 9.401875 6.55625 8.80375 5.8125 8.1875 C3.29028605 6.22577804 0.7698303 4.58276017 -2 3 C-1.34 2.01 -0.68 1.02 0 0 Z " fill="#B88788" transform="translate(182,190)"/>
<path d="M0 0 C-1.33333333 0.66666667 -2.66666667 1.33333333 -4 2 C-4.86625 2.556875 -4.86625 2.556875 -5.75 3.125 C-9.18698395 4.46160487 -12.32854467 4.12238184 -16 4 C-16 3.34 -16 2.68 -16 2 C-10.61972975 0.80911014 -5.54708616 -0.2919519 0 0 Z " fill="#762D2F" transform="translate(151,204)"/>
<path d="M0 0 C-2 2 -2 2 -4.8203125 2.1953125 C-5.91085938 2.17210937 -7.00140625 2.14890625 -8.125 2.125 C-9.22070312 2.10695312 -10.31640625 2.08890625 -11.4453125 2.0703125 C-12.28835937 2.04710937 -13.13140625 2.02390625 -14 2 C-10.53176091 -1.46823909 -4.53632763 -1.70112286 0 0 Z " fill="#C6091D" transform="translate(152,228)"/>
<path d="M0 0 C-2.39060851 1.59373901 -4.30828179 2.65297076 -6.9375 3.6875 C-7.60652344 3.95949219 -8.27554688 4.23148438 -8.96484375 4.51171875 C-11.32830338 5.0787676 -12.7192799 4.76024003 -15 4 C-5.77448747 -0.59225513 -5.77448747 -0.59225513 0 0 Z " fill="#6A2629" transform="translate(160,219)"/>
<path d="M0 0 C0.33 0.66 0.66 1.32 1 2 C1.66 2.33 2.32 2.66 3 3 C1.71186658 3.83878455 0.41936744 4.67086783 -0.875 5.5 C-1.59429687 5.9640625 -2.31359375 6.428125 -3.0546875 6.90625 C-5 8 -5 8 -7 8 C-7.33 8.66 -7.66 9.32 -8 10 C-7.62005832 7.24542282 -7.1926367 6.17979426 -5.125 4.25 C-3 3 -3 3 0 3 C0 2.01 0 1.02 0 0 Z " fill="#B98E8E" transform="translate(49,190)"/>
<path d="M0 0 C4.84688192 0.78175515 9.3766367 2.39844278 14 4 C9.91164803 5.36278399 6.98635702 4.44505442 3 3 C1 1.375 1 1.375 0 0 Z " fill="#D98280" transform="translate(151,60)"/>
<path d="M0 0 C2.64 0.33 5.28 0.66 8 1 C8 1.66 8 2.32 8 3 C9.32 3.66 10.64 4.32 12 5 C7.91621717 4.25749403 3.98060777 3.17076699 0 2 C0 1.34 0 0.68 0 0 Z " fill="#B3141F" transform="translate(50,190)"/>
<path d="M0 0 C3 1 3 1 3.984375 2.70703125 C4.23703125 3.40183594 4.4896875 4.09664063 4.75 4.8125 C5.01296875 5.49957031 5.2759375 6.18664062 5.546875 6.89453125 C6.06056958 9.28143969 5.76282269 10.70637773 5 13 C0.59225513 4.738041 0.59225513 4.738041 0 0 Z " fill="#BF3F48" transform="translate(79,108)"/>
<path d="M0 0 C-1.40751221 0.86916887 -2.8264521 1.71985149 -4.25 2.5625 C-5.03890625 3.03816406 -5.8278125 3.51382813 -6.640625 4.00390625 C-9.30844625 5.13022151 -10.34501768 5.0169313 -13 4 C-11.59248779 3.13083113 -10.1735479 2.28014851 -8.75 1.4375 C-7.96109375 0.96183594 -7.1721875 0.48617187 -6.359375 -0.00390625 C-3.69155375 -1.13022151 -2.65498232 -1.0169313 0 0 Z " fill="#DB7270" transform="translate(65,69)"/>
<path d="M0 0 C2.475 0.99 2.475 0.99 5 2 C4.443125 2.4125 3.88625 2.825 3.3125 3.25 C0.83804044 5.12256399 -1.5835229 7.05339344 -4 9 C-3.35455571 5.51460083 -1.89865603 2.97180943 0 0 Z " fill="#9E4449" transform="translate(53,192)"/>
<path d="M0 0 C2.5 1.125 2.5 1.125 5 3 C5.3125 6.1875 5.3125 6.1875 5 9 C4.01 9 3.02 9 2 9 C2.33 8.01 2.66 7.02 3 6 C2.67 5.34 2.34 4.68 2 4 C1.01 3.67 0.02 3.34 -1 3 C-0.67 2.01 -0.34 1.02 0 0 Z " fill="#A6575A" transform="translate(179,192)"/>
<path d="M0 0 C2.6015625 -0.29296875 2.6015625 -0.29296875 5.625 -0.1875 C7.12933594 -0.14689453 7.12933594 -0.14689453 8.6640625 -0.10546875 C9.43492187 -0.07066406 10.20578125 -0.03585938 11 0 C11.33 0.66 11.66 1.32 12 2 C11.40832031 1.98839844 10.81664062 1.97679688 10.20703125 1.96484375 C5.99768215 1.91677614 2.1077667 1.93993117 -2 3 C-1.34 2.01 -0.68 1.02 0 0 Z " fill="#AA5761" transform="translate(163,103)"/>
<path d="M0 0 C2.9375 0.75 2.9375 0.75 6 2 C6.875 4.125 6.875 4.125 7 6 C6.01 6.33 5.02 6.66 4 7 C0 1.125 0 1.125 0 0 Z " fill="#DD5A59" transform="translate(186,82)"/>
<path d="M0 0 C3.63 0 7.26 0 11 0 C11 0.99 11 1.98 11 3 C10.38125 2.814375 9.7625 2.62875 9.125 2.4375 C6.95839822 1.76313824 6.95839822 1.76313824 5 3 C2.375 2.0625 2.375 2.0625 0 1 C0 0.67 0 0.34 0 0 Z " fill="#DE5654" transform="translate(133,61)"/>
<path d="M0 0 C0.33 1.32 0.66 2.64 1 4 C2.32 3.67 3.64 3.34 5 3 C5 3.66 5 4.32 5 5 C4.34 5 3.68 5 3 5 C2.67 6.65 2.34 8.3 2 10 C-0.4294516 6.3558226 -0.16179575 4.28758728 0 0 Z " fill="#D25F60" transform="translate(193,206)"/>
<path d="M0 0 C6.625 0.75 6.625 0.75 10 3 C8.02 3.66 6.04 4.32 4 5 C3.67 4.01 3.34 3.02 3 2 C2.01 1.34 1.02 0.68 0 0 Z " fill="#864749" transform="translate(53,210)"/>
<path d="M0 0 C-1.485 1.98 -1.485 1.98 -3 4 C-5.475 3.01 -5.475 3.01 -8 2 C-4.77208445 -0.1519437 -3.71599191 -0.20086443 0 0 Z " fill="#8D4F51" transform="translate(180,210)"/>
<path d="M0 0 C0.66 0.33 1.32 0.66 2 1 C0.86695008 4.39914975 -0.12518475 5.05254451 -3 7 C-5 6 -5 6 -6 4 C-4.68 4 -3.36 4 -2 4 C-1.34 2.68 -0.68 1.36 0 0 Z " fill="#C23640" transform="translate(189,207)"/>
<path d="M0 0 C4.67692308 1.47692308 4.67692308 1.47692308 6.3125 4.125 C6.539375 4.74375 6.76625 5.3625 7 6 C6.21625 5.67 5.4325 5.34 4.625 5 C2.15667503 3.88133489 2.15667503 3.88133489 0 4 C0 2.68 0 1.36 0 0 Z " fill="#BF4A50" transform="translate(40,205)"/>
<path d="M0 0 C0.99 0.33 1.98 0.66 3 1 C0.69 2.65 -1.62 4.3 -4 6 C-4.66 5.67 -5.32 5.34 -6 5 C-1.60546875 0.99609375 -1.60546875 0.99609375 0 0 Z " fill="#884E50" transform="translate(176,201)"/>
<path d="M0 0 C0.66 0.33 1.32 0.66 2 1 C1.67 2.65 1.34 4.3 1 6 C0.01 6 -0.98 6 -2 6 C-1.125 1.125 -1.125 1.125 0 0 Z " fill="#D81226" transform="translate(17,224)"/>
<path d="M0 0 C1.98 0.495 1.98 0.495 4 1 C4 1.99 4 2.98 4 4 C4.66 4.33 5.32 4.66 6 5 C1.25 4.25 1.25 4.25 -1 2 C-0.67 1.34 -0.34 0.68 0 0 Z " fill="#A0595C" transform="translate(53,211)"/>
</svg>
